<svg width="148" height="58" viewBox="0 0 148 58" fill="none" xmlns="http://www.w3.org/2000/svg">
<g id="Img - BRICS Chamber of Commerce &#38;amp; Industry &#226;&#134;&#146; SVG">
<path id="Vector" d="M100.055 11.6229C94.4264 6.21304 86.7501 0.639725 78.4052 2.16252C73.6352 3.03279 69.8265 6.15609 66.9089 9.87432C66.8861 9.90292 66.8832 9.90091 66.9001 9.86829C68.713 6.37584 71.4216 3.16544 74.9704 1.38203C82.1623 -2.23168 89.8982 1.91196 95.2511 6.68401C96.9695 8.21552 98.574 9.85844 100.066 11.6128C100.13 11.687 100.126 11.6903 100.055 11.6229Z" fill="#E9E7EF"/>
<path id="Vector_2" d="M58.3392 13.3104C61.289 13.6514 64.1041 12.3771 66.315 10.5174C66.3178 10.5154 66.3211 10.5144 66.3246 10.5145C66.328 10.5146 66.3314 10.5159 66.334 10.5181C66.3366 10.5204 66.3384 10.5235 66.3391 10.5268C66.3398 10.5302 66.3393 10.5337 66.3377 10.5368C65.4434 12.0274 64.3199 13.3961 62.8728 14.3843C58.9134 17.0869 54.5473 14.9833 51.4695 12.1266C50.0314 10.792 48.7297 9.26342 47.5644 7.54078C46.7489 6.33532 46.0579 5.16268 45.4916 4.02287C45.4559 3.95097 45.4639 3.94561 45.5157 4.00679C47.4753 6.32951 49.455 8.45928 51.7288 10.2769C53.6328 11.799 55.8892 13.0277 58.3392 13.3104Z" fill="#E9E7EF"/>
<path id="Vector_3" d="M56.6759 42.3054L55.9409 42.294C57.1544 41.0386 58.3106 39.7336 59.4093 38.3791C59.4249 38.3599 59.4236 38.3423 59.4053 38.3262C58.6683 37.677 57.9783 36.768 58.0205 35.7256C58.0213 35.697 58.0364 35.6816 58.0654 35.6794L59.753 35.5628C59.7628 35.5622 59.7724 35.5654 59.78 35.5716C59.7876 35.5778 59.7925 35.5866 59.7939 35.5963C59.8644 36.1269 60.0692 36.5967 60.4082 37.0058C60.4125 37.011 60.4179 37.0152 60.4241 37.0181C60.4302 37.0209 60.4369 37.0223 60.4437 37.0222C60.4505 37.022 60.4571 37.0203 60.4631 37.0173C60.4692 37.0142 60.4745 37.0098 60.4785 37.0045C61.2168 36.0202 61.9188 35.0109 62.5842 33.9765C62.5868 33.9724 62.5884 33.9678 62.5888 33.963C62.5892 33.9582 62.5884 33.9533 62.5864 33.9489C62.5846 33.9445 62.5816 33.9406 62.5778 33.9376C62.574 33.9346 62.5696 33.9325 62.5648 33.9316C61.2631 33.7019 59.4562 33.2256 58.7923 31.924C58.3568 31.0698 58.5497 30.0543 59.1628 29.3134C60.5864 27.5931 63.9094 27.5911 65.8623 28.0593C65.8747 28.0624 65.8878 28.0611 65.8995 28.0556C65.9112 28.0501 65.9208 28.0408 65.9267 28.0292C67.7087 24.5296 69.533 21.0053 71.7071 17.7583C73.8382 14.5749 76.6272 11.5624 80.0065 9.66188C84.6205 7.06737 89.601 7.11292 94.5192 9.1407C96.1994 9.83385 97.802 10.6761 99.3261 11.6676C99.3911 11.7096 99.3878 11.7151 99.3174 11.6843C95.8202 10.1569 91.9948 9.14807 88.1793 9.4502C81.2895 9.99616 76.5556 15.35 72.8547 20.5806C70.9091 23.3292 69.192 25.9538 67.4006 28.6662C67.3878 28.6863 67.3912 28.7029 67.4113 28.7158C68.2869 29.2848 68.778 30.0936 68.8859 31.1422C68.8879 31.1668 68.8772 31.1797 68.8524 31.181L67.1125 31.2876C67.089 31.2894 67.0756 31.2784 67.0723 31.2547C67.0107 30.7952 66.8313 30.3887 66.5343 30.0355C66.5314 30.0321 66.5277 30.0293 66.5235 30.0275C66.5194 30.0257 66.5149 30.0249 66.5105 30.0251C66.506 30.0253 66.5016 30.0265 66.4977 30.0287C66.4938 30.0308 66.4906 30.0338 66.4881 30.0375L64.5908 32.7828C64.5895 32.7845 64.5887 32.7866 64.5884 32.7887C64.5881 32.7909 64.5883 32.793 64.5892 32.795C64.59 32.797 64.5913 32.7988 64.593 32.8002C64.5946 32.8016 64.5967 32.8025 64.5988 32.8029C66.4412 33.1177 69.4386 33.7729 69.2979 36.2937C69.2255 37.5879 68.096 38.576 66.949 39.0101C66.1759 39.3027 65.4059 39.4679 64.639 39.5059C63.0566 39.5836 61.458 39.4282 60.0357 38.7295C60.0138 38.7187 59.9948 38.7226 59.9788 38.7408C58.9216 39.9735 57.8206 41.1617 56.6759 42.3054ZM65.2132 29.2859C64.0233 28.9925 61.8319 28.9764 60.8778 29.8104C60.2923 30.3222 60.1429 31.1053 60.7485 31.6808C60.9998 31.9193 61.3595 32.066 61.6985 32.1658C62.2627 32.3311 62.8393 32.4644 63.4284 32.5657C63.4556 32.5702 63.4759 32.5604 63.4893 32.5362L65.2399 29.3462C65.2574 29.3145 65.2485 29.2944 65.2132 29.2859ZM61.0547 37.5109C62.341 38.1741 63.8538 38.3074 65.2667 38.0642C66.0191 37.935 66.9537 37.59 67.3289 36.8933C67.8052 36.0083 67.2371 35.2132 66.413 34.8662C65.5562 34.5051 64.5593 34.3276 63.6408 34.1674C63.6202 34.1634 63.6034 34.1699 63.5905 34.1869L61.0487 37.4848C61.0471 37.4868 61.0461 37.4892 61.0455 37.4917C61.0449 37.4942 61.045 37.4968 61.0455 37.4993C61.0461 37.5017 61.0473 37.5041 61.0488 37.5061C61.0504 37.5081 61.0524 37.5098 61.0547 37.5109Z" fill="#E9E7EF"/>
<path id="Vector_4" d="M50.6222 17.2109C56.6806 18.932 62.5634 16.1866 66.224 11.3281C66.3138 11.2093 66.321 11.2142 66.2455 11.3428C64.6972 13.9871 62.4475 16.7172 59.6934 18.1998C54.6038 20.9398 48.6734 18.8885 44.237 16.0767C43.3669 15.5251 42.4911 14.9827 41.6094 14.4494C38.608 12.6325 35.3481 11.8466 31.8563 11.8962C24.9431 11.994 18.7427 14.718 13.5459 19.1631C13.533 19.1739 13.5267 19.171 13.5271 19.1544C13.5271 19.1406 13.5354 19.1268 13.5519 19.1129C20.6051 12.9668 29.4726 8.26439 39.0938 11.5009C43.1898 12.8783 46.4418 16.0231 50.6222 17.2109Z" fill="#E9E7EF"/>
<path id="Vector_5" d="M49.4559 27.8399L48.8965 27.9163L47.9371 27.2959C47.917 27.283 47.9058 27.2644 47.9036 27.2403C47.8147 26.0915 47.4666 25.0797 46.8592 24.2048C44.3274 20.5582 38.7936 19.8756 35.3756 22.7148C34.3929 23.5313 33.4803 24.4192 32.6375 25.3785C32.6232 25.3951 32.6111 25.3935 32.6013 25.3738C32.2444 24.6508 31.9988 24.1617 31.8644 23.9066C29.819 20.0263 26.5691 16.7094 21.8573 16.7817C18.5605 16.832 15.2777 18.4171 12.5792 20.1965C12.5725 20.2005 12.5676 20.1989 12.5644 20.1918C12.5591 20.1784 12.5618 20.1804 12.5698 20.1737C14.8985 18.2543 17.6185 16.5305 20.6139 15.9088C26.1852 14.7538 30.3529 18.3487 33.351 22.5078C33.3635 22.5257 33.3776 22.5267 33.3932 22.5111L33.8474 22.0536C33.8514 22.0493 33.8537 22.0439 33.854 22.0382C33.8544 22.0325 33.8528 22.0268 33.8494 22.0221L32.6442 20.4437C32.6418 20.4405 32.6402 20.4369 32.6393 20.4331C32.6385 20.4293 32.6384 20.4253 32.6391 20.4214C32.6399 20.4176 32.6414 20.414 32.6437 20.4108C32.646 20.4076 32.6489 20.4048 32.6522 20.4028L35.3059 18.8023C35.3265 18.7898 35.3441 18.7931 35.3588 18.8123L36.5105 20.3204C36.5207 20.3343 36.5339 20.3378 36.55 20.3311C37.1744 20.0694 37.8191 19.874 38.4841 19.7449C38.5096 19.74 38.5223 19.7243 38.5223 19.698V17.8041C38.5223 17.7952 38.5259 17.7866 38.5321 17.7803C38.5384 17.7741 38.5469 17.7706 38.5558 17.7706H41.7381C41.7828 17.7706 41.8051 17.7929 41.8051 17.8376V19.6149C41.8051 19.6413 41.8183 19.6565 41.8446 19.6605C42.3975 19.7414 42.9404 19.8648 43.4732 20.031C43.4952 20.0377 43.5128 20.0316 43.5262 20.0129L44.6483 18.4077C44.6552 18.398 44.6654 18.3911 44.6768 18.3883C44.6883 18.3857 44.7004 18.3873 44.7106 18.393L47.4253 19.8977C47.4463 19.9093 47.4499 19.9251 47.436 19.9452L46.3567 21.4848C46.3433 21.504 46.346 21.5207 46.3647 21.535C47.1093 22.1085 47.7417 22.7872 48.2621 23.571C48.2736 23.5879 48.2893 23.5936 48.3089 23.5877L50.3503 22.9975C50.359 22.9949 50.3684 22.9958 50.3765 22.9999C50.3846 23.004 50.3907 23.0111 50.3938 23.0196L51.382 25.7316C51.3835 25.7355 51.3841 25.7396 51.3838 25.7438C51.3836 25.748 51.3825 25.752 51.3806 25.7558C51.3787 25.7595 51.3761 25.7627 51.3729 25.7654C51.3697 25.768 51.3659 25.77 51.3619 25.7711L49.4244 26.3299C49.4021 26.3361 49.3923 26.3506 49.3949 26.3734C49.4477 26.8437 49.468 27.3326 49.4559 27.8399Z" fill="#E9E7EF"/>
<path id="Vector_6" d="M48.8969 27.9154L49.4563 27.8391C52.1428 27.5831 55.0061 28.294 56.0801 31.0609C56.0818 31.0653 56.0824 31.0701 56.0821 31.0748C56.0817 31.0795 56.0803 31.0841 56.0781 31.0882C56.0757 31.0923 56.0726 31.0958 56.0688 31.0985C56.0649 31.1012 56.0606 31.103 56.056 31.1037L54.2705 31.44C54.2478 31.4441 54.2322 31.4354 54.2236 31.4139C53.6401 29.8851 52.4603 29.2165 50.9067 29.0932C49.0168 28.9438 46.8904 29.5716 46.1333 31.5084C45.3682 33.4653 45.6021 36.2724 47.5449 37.5064C48.7736 38.2863 50.5242 38.4189 51.8889 38.0196C53.2132 37.6319 54.0629 36.7541 54.438 35.386C54.4447 35.3624 54.4599 35.353 54.4836 35.3579L56.2904 35.7237C56.3132 35.7282 56.3211 35.7416 56.3139 35.7639C55.181 39.3816 51.229 39.9846 48.0367 39.2577C45.1351 38.5964 43.5862 35.8637 43.8187 33.0265C44.0605 30.074 46.144 28.4306 48.8969 27.9154Z" fill="#E9E7EF"/>
<path id="Vector_7" d="M19.3624 33.3199C20.4363 33.6134 21.5257 34.2076 21.8372 35.3666C22.1943 36.6925 21.4339 38.1114 20.23 38.701C19.0931 39.257 17.7887 39.3207 16.5446 39.3234C14.7764 39.3269 13.007 39.3272 11.2366 39.324C11.2282 39.324 11.2202 39.3207 11.2143 39.3148C11.2084 39.3089 11.2051 39.3009 11.2051 39.2925V28.0186C11.2051 28.0147 11.2059 28.0107 11.2074 28.0071C11.2089 28.0034 11.2111 28.0001 11.2139 27.9973C11.2167 27.9945 11.22 27.9923 11.2237 27.9908C11.2273 27.9893 11.2313 27.9885 11.2352 27.9885C13.0937 27.9845 14.9536 27.9838 16.8152 27.9865C17.633 27.9878 18.4019 28.101 19.1219 28.3261C20.5053 28.7596 21.7333 30.2663 21.0386 31.767C20.7117 32.4731 20.0806 32.9461 19.3577 33.2476C19.2894 33.2762 19.2909 33.3003 19.3624 33.3199ZM16.6484 29.3431C15.2005 29.3239 14.0305 29.3195 13.1386 29.3297C13.1109 29.3297 13.097 29.3436 13.097 29.3713L13.0977 32.7116C13.0977 32.7236 13.1024 32.7351 13.1108 32.7436C13.1192 32.7522 13.1306 32.757 13.1426 32.7572C14.4034 32.7661 15.6627 32.7577 16.9204 32.7317C17.9836 32.7096 19.4448 32.4068 19.3858 31.0146C19.3229 29.5073 17.847 29.3592 16.6484 29.3431ZM16.8159 34.1038C15.5886 34.0978 14.4175 34.0542 13.1205 34.0877C13.1142 34.0879 13.1082 34.0905 13.1039 34.095C13.0995 34.0995 13.097 34.1055 13.097 34.1118L13.0977 37.952C13.0977 37.9712 13.1071 37.9808 13.1258 37.9808C14.4675 37.9888 15.8092 37.9922 17.1509 37.9908C17.6413 37.99 18.121 37.92 18.5899 37.7811C19.6297 37.4723 20.2983 36.4319 19.8427 35.38C19.3443 34.2297 17.8925 34.1091 16.8159 34.1038Z" fill="#E9E7EF"/>
<path id="Vector_8" d="M31.9308 34.1887C32.2798 34.3327 32.6436 34.4795 32.9464 34.6945C33.5324 35.1112 34.059 35.6088 34.5262 36.1872C35.5726 37.4833 36.4022 38.5177 37.015 39.2904C37.0333 39.3136 37.0278 39.3252 36.9983 39.3252H34.7071C34.6878 39.3252 34.6722 39.3176 34.6602 39.3024C33.7821 38.1854 33.0081 37.2176 32.3381 36.3989C31.7057 35.6258 30.8937 34.665 29.868 34.4018C29.6112 34.3356 29.1675 34.3019 28.5368 34.3006C27.8396 34.2993 27.1427 34.2997 26.4459 34.3019C26.424 34.3019 26.4131 34.3129 26.4131 34.3348V39.2917C26.4131 39.314 26.4019 39.3252 26.3796 39.3252H24.5875C24.554 39.3252 24.5372 39.3085 24.5372 39.275V28.0191C24.5372 28.0104 24.5407 28.0021 24.5469 27.996C24.553 27.9898 24.5613 27.9863 24.5701 27.9863C26.7608 27.9858 28.9551 27.9861 31.153 27.987C32.4319 27.987 34.1209 28.1096 35.0534 29.0884C36.0959 30.1824 36.2004 31.8285 35.1017 32.9326C34.3138 33.7238 33.0141 34.0581 31.9362 34.1532C31.9322 34.1538 31.9285 34.1556 31.9256 34.1585C31.9228 34.1613 31.9209 34.165 31.9203 34.1689C31.9197 34.173 31.9204 34.177 31.9223 34.1806C31.9242 34.1842 31.9272 34.187 31.9308 34.1887ZM31.4042 29.2699C29.7526 29.2409 28.0994 29.2329 26.4446 29.2458C26.4236 29.2458 26.4131 29.2565 26.4131 29.278V32.9607C26.4131 32.9696 26.4166 32.9781 26.4229 32.9844C26.4292 32.9906 26.4377 32.9942 26.4466 32.9942C27.8968 32.9969 29.347 32.9924 30.7972 32.9808C31.9281 32.9714 33.4395 32.814 33.8757 31.533C34.0048 31.1547 33.981 30.7869 33.8046 30.4296C33.3725 29.5527 32.3033 29.286 31.4042 29.2699Z" fill="#E9E7EF"/>
<path id="Vector_9" d="M41.0001 27.9871H39.1604C39.1504 27.9871 39.1423 27.9952 39.1423 28.0051V39.3072C39.1423 39.3172 39.1504 39.3253 39.1604 39.3253H41.0001C41.0101 39.3253 41.0182 39.3172 41.0182 39.3072V28.0051C41.0182 27.9952 41.0101 27.9871 41.0001 27.9871Z" fill="#E9E7EF"/>
<path id="Vector_10" d="M147.161 41.7513C147.162 42.016 147.109 42.2781 147.006 42.5229C146.903 42.7675 146.752 42.9899 146.562 43.1774C146.371 43.3648 146.144 43.5137 145.895 43.6154C145.646 43.7171 145.378 43.7697 145.108 43.7702C144.838 43.7706 144.571 43.719 144.321 43.6182C144.072 43.5173 143.845 43.3693 143.654 43.1825C143.462 42.9956 143.31 42.7738 143.207 42.5295C143.103 42.2852 143.05 42.0232 143.049 41.7586C143.048 41.4939 143.101 41.2318 143.204 40.9871C143.307 40.7424 143.458 40.52 143.649 40.3325C143.839 40.1451 144.066 39.9962 144.315 39.8945C144.564 39.7928 144.832 39.7402 145.102 39.7397C145.372 39.7393 145.639 39.7909 145.889 39.8918C146.138 39.9926 146.365 40.1406 146.556 40.3274C146.748 40.5143 146.9 40.7362 147.003 40.9804C147.107 41.2248 147.16 41.4867 147.161 41.7513ZM146.76 41.7563C146.76 41.3263 146.586 40.9139 146.277 40.6099C145.967 40.3059 145.547 40.135 145.109 40.135C144.892 40.135 144.678 40.177 144.477 40.2584C144.277 40.3399 144.095 40.4593 143.941 40.6099C143.788 40.7604 143.667 40.9392 143.584 41.1359C143.501 41.3326 143.458 41.5434 143.458 41.7563C143.458 41.9692 143.501 42.18 143.584 42.3767C143.667 42.5734 143.788 42.7522 143.941 42.9027C144.095 43.0533 144.277 43.1727 144.477 43.2542C144.678 43.3356 144.892 43.3776 145.109 43.3776C145.326 43.3776 145.541 43.3356 145.741 43.2542C145.941 43.1727 146.123 43.0533 146.277 42.9027C146.43 42.7522 146.551 42.5734 146.635 42.3767C146.718 42.18 146.76 41.9692 146.76 41.7563Z" fill="#E9E7EF"/>
<path id="Vector_11" d="M60.313 40.1813L60.2795 40.176C60.364 40.0576 60.46 39.9493 60.5676 39.851C60.598 39.8234 60.6018 39.8267 60.579 39.8611C60.5026 39.9781 60.414 40.0848 60.313 40.1813Z" fill="#E9E7EF"/>
<path id="Vector_12" d="M60.2795 40.1758L60.313 40.1811C59.1853 41.5492 57.9794 42.8444 56.6953 44.0668L56.3938 44.0501C57.7578 42.8276 59.053 41.5362 60.2795 40.1758Z" fill="#E9E7EF"/>
<path id="Vector_13" d="M143.79 41.2511V41.0976C143.79 41.0893 143.793 41.0813 143.799 41.0754C143.805 41.0694 143.813 41.0662 143.821 41.0662H144.881C144.889 41.0662 144.897 41.0694 144.903 41.0754C144.909 41.0813 144.912 41.0893 144.912 41.0976V41.2524C144.912 41.2608 144.909 41.2688 144.903 41.2747C144.897 41.2806 144.889 41.2839 144.881 41.2839H144.49C144.482 41.2839 144.474 41.2872 144.468 41.2931C144.462 41.299 144.459 41.307 144.459 41.3154L144.463 42.4416C144.463 42.4499 144.46 42.4579 144.454 42.4638C144.448 42.4698 144.44 42.4731 144.432 42.4731H144.271C144.263 42.4731 144.255 42.4698 144.249 42.4638C144.243 42.4579 144.239 42.4499 144.239 42.4416L144.243 41.3181C144.243 41.3097 144.24 41.3017 144.234 41.2958C144.228 41.2899 144.22 41.2866 144.212 41.2866L143.821 41.2826C143.813 41.2826 143.805 41.2792 143.799 41.2733C143.793 41.2674 143.79 41.2594 143.79 41.2511Z" fill="#E9E7EF"/>
<path id="Vector_14" d="M146.11 41.5626L145.807 42.4342C145.798 42.4601 145.78 42.4731 145.752 42.4731H145.644C145.614 42.4731 145.594 42.4588 145.584 42.4302L145.283 41.5304C145.281 41.5264 145.278 41.5231 145.275 41.521C145.271 41.5189 145.267 41.5181 145.262 41.5188C145.258 41.5195 145.254 41.5217 145.251 41.5249C145.248 41.5281 145.246 41.5322 145.246 41.5365L145.257 42.4342C145.258 42.4601 145.245 42.4731 145.219 42.4731H145.08C145.046 42.4731 145.029 42.4563 145.029 42.4228V41.0997C145.029 41.0774 145.041 41.0662 145.063 41.0662H145.302C145.33 41.0662 145.349 41.0796 145.358 41.1064L145.679 42.0805C145.681 42.0862 145.684 42.0911 145.689 42.0946C145.693 42.0982 145.699 42.1 145.705 42.1C145.711 42.1 145.717 42.0982 145.722 42.0946C145.727 42.0911 145.73 42.0862 145.732 42.0805L146.069 41.1003C146.077 41.0776 146.093 41.0662 146.117 41.0662H146.327C146.355 41.0662 146.369 41.08 146.369 41.1077L146.371 42.4322C146.371 42.4595 146.357 42.4731 146.33 42.4731H146.174C146.147 42.4731 146.133 42.4592 146.133 42.4315L146.135 41.5666C146.135 41.5162 146.127 41.5148 146.11 41.5626Z" fill="#E9E7EF"/>
<path id="Vector_15" d="M55.9409 42.2939L56.6758 42.3053L56.9793 42.3569C57.0088 42.3618 57.0211 42.3792 57.0162 42.4092L56.9177 42.9746C56.9128 43.0019 56.8965 43.0135 56.8688 43.0095C55.9221 42.8594 55.7567 43.1053 55.7861 44.0211C55.787 44.0457 55.7997 44.0579 55.8243 44.0579L56.3938 44.0499L56.6953 44.0666L56.6979 44.5838C56.6979 44.6128 56.6834 44.628 56.6544 44.6294L56.0782 44.6502L55.8364 44.6354C55.8176 44.6346 55.8054 44.643 55.7995 44.6609C55.7727 44.7417 55.7783 44.819 55.8163 44.8927C55.7989 44.9083 55.7904 44.9503 55.7908 45.0186C55.7908 46.1307 55.7908 47.2469 55.7908 48.367C55.7908 48.4014 55.7736 48.4186 55.7392 48.4186H55.0378C55.0119 48.4186 54.999 48.4057 54.999 48.3798L54.9869 45.6357C55.0155 45.5186 55.0146 45.4023 54.9842 45.2866L54.9976 44.6763C54.9981 44.6477 54.984 44.6334 54.9554 44.6334H54.3632C54.3382 44.6334 54.3214 44.6215 54.3129 44.5979L54.2834 44.5135C54.3098 44.3831 54.3131 44.2562 54.2935 44.133C54.2918 44.1226 54.2926 44.1121 54.2957 44.1021C54.2989 44.0922 54.3044 44.0832 54.3117 44.0757C54.319 44.0683 54.3279 44.0627 54.3378 44.0593C54.3477 44.056 54.3582 44.0551 54.3685 44.0566C54.5315 44.0798 54.6866 44.0711 54.8335 44.0305C54.936 44.143 55.084 43.997 54.9701 43.9105C55.0095 43.689 55.0206 43.4657 55.0036 43.2406C55.0626 42.8373 55.2716 42.5579 55.6307 42.4025C55.7158 42.3663 55.8404 42.3489 55.9409 42.2939Z" fill="#E9E7EF"/>
<path id="Vector_16" d="M14.8208 47.0185C14.9459 46.8202 15.0325 46.6083 15.0807 46.3827C15.0919 46.3309 15.1234 46.3112 15.1752 46.3238L15.9141 46.5C15.9334 46.5044 15.9405 46.5162 15.9356 46.5355C15.5182 48.1474 14.1026 48.7282 12.5738 48.4569C10.8058 48.1433 10.1037 46.4718 10.3154 44.8345C10.5525 43.0028 12.1068 42.0776 13.848 42.3523C14.8467 42.5099 15.5073 43.0586 15.8297 43.9984C15.8319 44.0049 15.8328 44.0118 15.8322 44.0186C15.8316 44.0255 15.8295 44.0321 15.8262 44.0381C15.8228 44.0441 15.8183 44.0493 15.8128 44.0535C15.8072 44.0576 15.8009 44.0605 15.7942 44.062L15.0532 44.2255C15.0291 44.2308 15.0124 44.2221 15.003 44.1993C14.7357 43.5676 14.4061 43.1288 13.6832 43.0129C11.3464 42.637 10.7307 45.0448 11.406 46.7271C11.942 48.0636 14.055 48.2338 14.8208 47.0185Z" fill="#E9E7EF"/>
<path id="Vector_17" d="M60.9019 43.8683C60.3693 44.7507 60.388 46.392 61.068 47.1846C61.4801 47.6649 62.14 47.872 62.7644 47.8311C63.6299 47.7748 64.2624 47.2328 64.4587 46.3706C64.4605 46.3622 64.4641 46.3541 64.4691 46.347C64.4741 46.34 64.4805 46.334 64.4879 46.3293C64.4952 46.3247 64.5034 46.3216 64.5119 46.3201C64.5205 46.3187 64.5293 46.319 64.5377 46.321L65.2914 46.4999C65.3164 46.5057 65.3256 46.5213 65.3189 46.5468C64.9698 47.8023 64.048 48.4568 62.7824 48.5205C62.2527 48.5477 61.7547 48.4677 61.2885 48.2806C59.621 47.6127 59.2431 45.024 60.1073 43.6084C60.8624 42.3717 62.7322 41.9375 64.0125 42.5881C64.5529 42.8627 64.9486 43.3178 65.1996 43.9534C65.2242 44.0155 65.2039 44.0539 65.1387 44.0686L64.4104 44.2294C64.3828 44.2357 64.3649 44.2249 64.3568 44.1973C63.8972 42.6309 61.6737 42.5907 60.9019 43.8683Z" fill="#E9E7EF"/>
<path id="Vector_18" d="M109.814 46.38C109.937 46.1375 110.029 45.8834 110.091 45.6176C110.093 45.6092 110.098 45.6017 110.106 45.597C110.113 45.5922 110.122 45.5905 110.13 45.5922L110.887 45.7416C110.891 45.7424 110.894 45.7439 110.898 45.7462C110.901 45.7485 110.904 45.7513 110.906 45.7548C110.908 45.7582 110.91 45.7619 110.91 45.7659C110.911 45.7698 110.91 45.7738 110.91 45.7777C110.794 46.2212 110.615 46.6361 110.371 47.0225C110.36 47.0413 110.36 47.0589 110.374 47.0754C110.652 47.4099 110.968 47.7018 111.324 47.951C111.344 47.9658 111.346 47.9825 111.329 48.0013L110.853 48.5279C110.845 48.5373 110.833 48.5434 110.821 48.545C110.808 48.5466 110.796 48.5436 110.785 48.5366C110.443 48.307 110.135 48.0375 109.863 47.728C109.846 47.7092 109.83 47.7087 109.812 47.7266C109.182 48.3738 108.427 48.6262 107.547 48.4837C106.728 48.3517 106.038 47.7072 105.963 46.8691C105.882 45.9499 106.702 45.3054 107.453 44.9865C107.459 44.9841 107.463 44.9803 107.467 44.9754C107.471 44.9705 107.474 44.9647 107.475 44.9586C107.477 44.9524 107.476 44.9461 107.474 44.9401C107.473 44.9341 107.469 44.9286 107.465 44.9242C106.94 44.3996 106.48 43.6614 106.996 42.9465C107.51 42.233 108.666 42.0783 109.365 42.6156C109.771 42.9271 109.956 43.4436 109.796 43.938C109.635 44.4325 109.125 44.809 108.673 45.0294C108.669 45.0313 108.666 45.0342 108.663 45.0376C108.661 45.0411 108.659 45.0451 108.658 45.0494C108.657 45.0537 108.657 45.0581 108.658 45.0623C108.659 45.0665 108.661 45.0704 108.664 45.0736L109.763 46.386C109.783 46.4097 109.8 46.4077 109.814 46.38ZM107.826 44.1163C107.948 44.259 108.077 44.399 108.2 44.5356C108.208 44.5445 108.218 44.5504 108.231 44.5527C108.242 44.5549 108.254 44.5531 108.264 44.5477C108.698 44.3259 109.186 43.9602 109.017 43.3947C108.719 42.3978 106.931 43.0651 107.826 44.1163ZM108.028 45.5995C107.974 45.5365 107.944 45.4166 107.829 45.4823C107.352 45.7556 106.784 46.1623 106.824 46.7652C106.862 47.3334 107.318 47.8311 107.909 47.8626C108.456 47.8921 108.98 47.5846 109.324 47.1592C109.331 47.1507 109.335 47.1401 109.335 47.1292C109.335 47.1183 109.331 47.1078 109.323 47.0995C108.892 46.5971 108.46 46.0971 108.028 45.5995Z" fill="#E9E7EF"/>
<path id="Vector_19" d="M17.7666 44.4968C18.6275 43.5635 20.6467 43.8074 20.6809 45.3376C20.7058 46.4551 20.711 47.4714 20.6963 48.3865C20.6963 48.408 20.6855 48.4187 20.6641 48.4187L19.9225 48.418C19.9164 48.418 19.9106 48.4157 19.9064 48.4115C19.9021 48.4074 19.8997 48.4017 19.8997 48.3959C19.8997 47.4249 19.8937 46.4557 19.8816 45.4883C19.8702 44.6006 18.9785 44.4218 18.3153 44.748C17.6935 45.0535 17.6915 45.6451 17.6902 46.2748C17.6884 46.9783 17.687 47.6817 17.6862 48.3852C17.6862 48.4075 17.6748 48.4187 17.652 48.4187H16.9499C16.9366 48.4187 16.9238 48.4134 16.9144 48.4039C16.905 48.3946 16.8997 48.3818 16.8997 48.3684V42.4407C16.8997 42.432 16.9031 42.4236 16.9091 42.4175C16.9151 42.4114 16.9233 42.4079 16.9318 42.4079L17.6513 42.4019C17.675 42.4019 17.6868 42.4137 17.6868 42.4374V44.466C17.6868 44.5446 17.7134 44.5549 17.7666 44.4968Z" fill="#E9E7EF"/>
<path id="Vector_20" d="M125.112 47.9042C124.678 48.538 123.808 48.6485 123.134 48.3806C121.263 47.6376 121.403 44.2175 123.582 43.977C124.17 43.912 124.67 44.0835 125.064 44.5129C125.087 44.5379 125.098 44.5335 125.098 44.4995V42.4408C125.098 42.4189 125.109 42.408 125.131 42.408L125.852 42.4026C125.874 42.4021 125.885 42.4131 125.885 42.4354V48.3913C125.885 48.3984 125.883 48.4052 125.877 48.4102C125.873 48.4153 125.866 48.4181 125.858 48.4181L125.182 48.4188C125.16 48.4188 125.148 48.4076 125.148 48.3853V47.9156C125.148 47.9113 125.147 47.9071 125.144 47.9036C125.142 47.9001 125.138 47.8975 125.134 47.8962C125.13 47.8949 125.126 47.8951 125.122 47.8965C125.117 47.8979 125.114 47.9006 125.112 47.9042ZM124.67 47.6322C125.243 47.1472 125.229 46.1657 125.057 45.5199C124.786 44.5002 123.452 44.1867 122.898 45.136C122.638 45.5822 122.615 46.2019 122.698 46.7285C122.846 47.6744 123.852 48.3256 124.67 47.6322Z" fill="#E9E7EF"/>
<path id="Vector_21" d="M35.1682 44.5117C35.7979 43.8263 36.8497 43.7982 37.5612 44.314C38.7417 45.1702 38.6579 47.4487 37.4165 48.2172C36.6916 48.6667 35.6961 48.6419 35.1347 47.9291C35.1309 47.9242 35.1258 47.9207 35.1199 47.919C35.114 47.9173 35.1077 47.9176 35.102 47.9196C35.0963 47.9217 35.0913 47.9255 35.088 47.9306C35.0846 47.9357 35.0828 47.9417 35.0831 47.9478L35.0918 48.3753C35.0923 48.4043 35.0779 48.4188 35.0489 48.4188H34.4024C34.3689 48.4188 34.3522 48.4021 34.3522 48.3686V42.4563C34.3522 42.4228 34.3689 42.406 34.4024 42.406H35.1059C35.1282 42.406 35.1394 42.4172 35.1394 42.4395V44.5009C35.1392 44.5042 35.1402 44.5074 35.142 44.5102C35.1439 44.5129 35.1465 44.5149 35.1496 44.5161C35.1528 44.5173 35.1562 44.5175 35.1595 44.5167C35.1629 44.5159 35.1659 44.5141 35.1682 44.5117ZM35.4496 45.0161C34.9491 45.6399 34.9149 46.9885 35.5078 47.58C35.9714 48.0423 36.7225 48.0034 37.164 47.5284C37.7488 46.8987 37.7488 45.4201 37.0889 44.8446C36.5878 44.4078 35.8596 44.505 35.4496 45.0161Z" fill="#E9E7EF"/>
<path id="Vector_22" d="M115.718 42.4065H114.915C114.906 42.4065 114.898 42.4143 114.898 42.4239V48.4012C114.898 48.4109 114.906 48.4186 114.915 48.4186H115.718C115.727 48.4186 115.735 48.4109 115.735 48.4012V42.4239C115.735 42.4143 115.727 42.4065 115.718 42.4065Z" fill="#E9E7EF"/>
<path id="Vector_23" d="M137.529 44.6784C137.523 45.5735 137.523 46.4686 137.526 47.3636C137.527 47.8299 137.935 47.8158 138.27 47.7595C138.302 47.7542 138.322 47.7681 138.327 47.8011L138.422 48.3726C138.426 48.3958 138.417 48.4101 138.393 48.4154C137.996 48.5032 137.377 48.5287 137.052 48.2694C136.754 48.0322 136.762 47.712 136.757 47.3589C136.743 46.4617 136.736 45.5639 136.737 44.6657C136.737 44.6572 136.733 44.649 136.727 44.643C136.721 44.637 136.713 44.6336 136.704 44.6336H136.204C136.183 44.6336 136.172 44.6228 136.172 44.6014L136.164 44.101C136.163 44.0777 136.175 44.0659 136.199 44.0654L136.699 44.0601C136.725 44.0596 136.739 44.0462 136.739 44.0199V43.0103C136.739 42.987 136.749 42.9699 136.769 42.9587L137.478 42.5607C137.51 42.5433 137.526 42.5527 137.526 42.5889V44.0306C137.526 44.0529 137.537 44.0641 137.559 44.0641H138.275C138.302 44.0641 138.315 44.0777 138.315 44.105L138.312 44.6007C138.312 44.6226 138.301 44.6336 138.279 44.6336H137.573C137.543 44.6336 137.529 44.6485 137.529 44.6784Z" fill="#E9E7EF"/>
<path id="Vector_24" d="M55.0036 43.2407C55.0205 43.4658 55.0094 43.6891 54.9701 43.9107L54.8334 44.0306C54.6865 44.0713 54.5315 44.08 54.3685 44.0567C54.3582 44.0552 54.3476 44.0562 54.3377 44.0595C54.3279 44.0628 54.3189 44.0684 54.3116 44.0759C54.3043 44.0833 54.2988 44.0924 54.2956 44.1023C54.2925 44.1123 54.2918 44.1228 54.2934 44.1331C54.3131 44.2564 54.3097 44.3832 54.2834 44.5136L53.6637 45.0382L53.4292 44.7032L55.0036 43.2407Z" fill="#E9E7EF"/>
<path id="Vector_25" d="M24.8521 47.9301C24.2746 48.4044 23.5948 48.59 22.8128 48.4869C22.1147 48.3944 21.5265 47.8504 21.6417 47.1121C21.7616 46.3383 22.4383 46.0409 23.1323 45.9538C23.6942 45.8841 24.2538 45.7932 24.8112 45.6811C24.8274 45.6778 24.8419 45.6692 24.8526 45.6568C24.8633 45.6443 24.8695 45.6285 24.8702 45.6121C24.893 45.1954 24.8173 44.8175 24.3624 44.6701C23.6877 44.4517 22.7451 44.5053 22.5535 45.3609C22.5477 45.3859 22.5323 45.3968 22.5073 45.3937L21.8072 45.3079C21.802 45.3072 21.7969 45.3055 21.7924 45.3027C21.7878 45.2999 21.7839 45.2963 21.7809 45.2919C21.7779 45.2876 21.7758 45.2826 21.7748 45.2775C21.7738 45.2722 21.7739 45.2669 21.775 45.2617C21.9184 44.6521 22.2507 44.2923 22.865 44.1034C23.6234 43.8709 25.2179 43.8032 25.571 44.7512C25.6286 44.9053 25.6562 45.2233 25.654 45.7052C25.65 46.657 25.6623 47.3493 25.6909 47.7821C25.7007 47.9303 25.7664 48.1276 25.8878 48.3736C25.9026 48.4036 25.8934 48.4185 25.8604 48.4185H25.1127C25.085 48.4185 25.0672 48.4051 25.0591 48.3783L24.9338 47.9556C24.9196 47.906 24.8923 47.8975 24.8521 47.9301ZM24.8528 46.7443C24.8628 46.5741 24.8782 46.4294 24.8709 46.272C24.8707 46.268 24.8697 46.2641 24.8678 46.2605C24.8658 46.2571 24.8632 46.254 24.8599 46.2516C24.8567 46.2492 24.8528 46.2476 24.8488 46.2468C24.8448 46.2461 24.8406 46.2462 24.8367 46.2472C24.3137 46.391 23.7824 46.4956 23.2429 46.5607C23.0854 46.5795 22.8443 46.6612 22.7237 46.7524C22.2601 47.1027 22.4758 47.7492 22.997 47.8839C23.8217 48.0969 24.7965 47.6936 24.8528 46.7443Z" fill="#E9E7EF"/>
<path id="Vector_26" d="M27.6083 44.6355C28.1756 43.9722 28.8832 43.7934 29.7314 44.0989C29.9632 44.1819 30.151 44.3757 30.2948 44.6804C30.3069 44.7067 30.3221 44.7085 30.3404 44.6857C30.7579 44.1556 31.2832 43.9162 31.9161 43.9675C32.9666 44.0526 33.1957 44.7199 33.1964 45.6551C33.1964 46.5671 33.1964 47.4806 33.1964 48.3952C33.1964 48.3983 33.1958 48.4012 33.1945 48.404C33.1934 48.4067 33.1917 48.4092 33.1895 48.4113C33.1873 48.4135 33.1847 48.4151 33.1819 48.4163C33.179 48.4174 33.176 48.418 33.1729 48.418L32.446 48.4187C32.4224 48.4187 32.4105 48.4071 32.4105 48.3839C32.4074 47.4893 32.4076 46.5966 32.4112 45.7061C32.4125 45.4434 32.3893 45.2311 32.3415 45.0689C32.2109 44.6281 31.632 44.537 31.2488 44.6415C30.5313 44.8371 30.4335 45.43 30.4328 46.0739C30.4328 46.8461 30.4328 47.6199 30.4328 48.3952C30.4328 48.4013 30.4303 48.4071 30.4259 48.4113C30.4216 48.4156 30.4156 48.418 30.4094 48.418L29.6818 48.4187C29.6577 48.4187 29.6456 48.4066 29.6456 48.3825C29.6465 47.3945 29.6454 46.4082 29.6423 45.4233C29.6396 44.7454 29.1217 44.4955 28.5221 44.6415C27.9888 44.772 27.7119 45.1491 27.6914 45.7731C27.6637 46.6274 27.6584 47.4899 27.6753 48.3604C27.6762 48.3993 27.6572 48.4187 27.6184 48.4187H26.9243C26.8961 48.4187 26.8821 48.4046 26.8821 48.3765V44.0975C26.8821 44.0752 26.8933 44.064 26.9156 44.064H27.552C27.5743 44.064 27.5855 44.0752 27.5855 44.0975L27.5862 44.6268C27.5862 44.6293 27.5869 44.6319 27.5884 44.634C27.5898 44.6362 27.5919 44.6378 27.5942 44.6387C27.5966 44.6396 27.5993 44.6398 27.6018 44.6393C27.6043 44.6387 27.6066 44.6374 27.6083 44.6355Z" fill="#E9E7EF"/>
<path id="Vector_27" d="M39.9107 46.4758C39.9422 47.194 40.369 47.7769 41.0664 47.8847C41.7337 47.9886 42.2911 47.6924 42.5155 47.0433C42.5222 47.0232 42.5363 47.0143 42.5577 47.0165L43.3094 47.1029C43.3141 47.1034 43.3187 47.105 43.3228 47.1076C43.3269 47.1101 43.3303 47.1135 43.3328 47.1176C43.3354 47.1217 43.3371 47.1262 43.3377 47.131C43.3382 47.1357 43.3377 47.1405 43.3362 47.1451C43.0905 47.9044 42.5669 48.3481 41.7652 48.4763C39.8464 48.7825 38.7403 47.3541 39.1765 45.5379C39.5054 44.1672 41.0275 43.5776 42.2542 44.1812C43.1285 44.6114 43.3596 45.3952 43.3831 46.3552C43.3833 46.3644 43.3816 46.3735 43.3782 46.382C43.3748 46.3906 43.3697 46.3984 43.3633 46.4049C43.357 46.4114 43.3492 46.4167 43.3408 46.4202C43.3324 46.4238 43.3233 46.4256 43.3141 46.4256H39.959C39.9255 46.4256 39.9094 46.4423 39.9107 46.4758ZM39.965 45.8307L42.5376 45.8347C42.5403 45.8347 42.5428 45.8336 42.5447 45.8317C42.5466 45.8299 42.5477 45.8273 42.5477 45.8246V45.822C42.5482 45.4893 42.4133 45.17 42.1727 44.9343C41.9322 44.6986 41.6056 44.5659 41.2647 44.5651H41.2433C41.0744 44.5648 40.9071 44.5969 40.7509 44.6597C40.5947 44.7224 40.4528 44.8146 40.3331 44.931C40.2135 45.0474 40.1185 45.1856 40.0536 45.3377C39.9887 45.4899 39.9552 45.6531 39.9549 45.8179V45.8206C39.9549 45.8233 39.956 45.8258 39.9579 45.8277C39.9598 45.8296 39.9623 45.8307 39.965 45.8307Z" fill="#E9E7EF"/>
<path id="Vector_28" d="M45.0715 44.6715C45.4829 43.9406 46.0972 43.751 46.8275 44.1804C46.848 44.1925 46.8541 44.2097 46.8456 44.232L46.6118 44.8349C46.6015 44.8609 46.5836 44.8686 46.5582 44.8584C45.4909 44.4276 45.1265 45.1679 45.1238 46.0884C45.1211 46.8557 45.1206 47.6244 45.1225 48.3944C45.1225 48.4006 45.1199 48.4066 45.1154 48.411C45.1109 48.4154 45.1048 48.4178 45.0983 48.4178L44.3768 48.4185C44.3487 48.4185 44.3346 48.4046 44.3346 48.377V44.0946C44.3346 44.071 44.3465 44.0591 44.3701 44.0591L45.0059 44.0658C45.0273 44.0663 45.038 44.0772 45.038 44.0987L45.0387 44.6628C45.0386 44.6667 45.0398 44.6706 45.0421 44.6738C45.0445 44.6769 45.0478 44.6792 45.0516 44.6802C45.0555 44.6812 45.0595 44.6809 45.0631 44.6793C45.0667 44.6777 45.0697 44.675 45.0715 44.6715Z" fill="#E9E7EF"/>
<path id="Vector_29" d="M53.4292 44.7031L53.6637 45.0381C53.7985 45.3945 53.8767 45.763 53.8982 46.1435L53.8841 46.5428C53.7394 48.0214 52.6715 48.6149 51.2686 48.4997C51.1065 48.4359 50.939 48.3967 50.7661 48.3825C50.7661 48.3766 50.7661 48.3709 50.7661 48.365C50.7661 48.3539 50.7613 48.3461 50.7514 48.3416C50.4647 48.2089 50.2128 48.0272 49.9957 47.7963C49.9707 47.7248 49.926 47.669 49.8617 47.6288C49.181 46.2902 49.4517 44.4519 51.1159 44.0291C52.0123 43.8013 52.7834 44.026 53.4292 44.7031ZM50.5109 47.1377C50.5288 47.2275 50.5714 47.2983 50.6389 47.3501C50.8524 47.6886 51.1596 47.8646 51.5607 47.878C51.8359 47.9383 52.0902 47.8943 52.3238 47.746C52.4698 47.7098 52.5806 47.627 52.6561 47.4975C52.8445 47.3251 52.9542 47.1127 52.985 46.8603C53.0078 46.826 53.0237 46.7873 53.0326 46.7444C53.1135 46.3585 53.0971 45.9767 52.9837 45.5988C52.9801 45.4657 52.9348 45.342 52.8477 45.2277C52.5417 44.7176 52.104 44.503 51.5346 44.5838C50.2965 44.76 50.1464 46.1803 50.5109 47.1377Z" fill="#E9E7EF"/>
<path id="Vector_30" d="M70.3309 46.5034C70.3362 47.027 70.1339 47.5313 69.7674 47.9054C69.401 48.2796 68.9012 48.4928 68.3773 48.4983L68.0021 48.5022C67.7429 48.505 67.4856 48.4566 67.2451 48.3598C67.0046 48.2632 66.7856 48.12 66.6003 47.9386C66.4151 47.7572 66.2674 47.5411 66.1657 47.3026C66.0639 47.0642 66.0102 46.808 66.0075 46.5487L66.0015 45.9752C65.996 45.4517 66.1987 44.9473 66.5651 44.5732C66.9314 44.1991 67.4313 43.9858 67.9552 43.9803L68.3304 43.9764C68.5897 43.9737 68.8469 44.0221 69.0874 44.1188C69.328 44.2155 69.547 44.3586 69.7319 44.54C69.9175 44.7214 70.0649 44.9375 70.1667 45.176C70.2686 45.4145 70.3222 45.6707 70.3248 45.9299L70.3309 46.5034ZM67.3483 44.8485C66.5952 45.4421 66.5845 47.1056 67.3925 47.6697C67.9298 48.0448 68.723 47.9758 69.1564 47.464C69.7983 46.7063 69.6663 45.0307 68.6366 44.6509C68.2232 44.4981 67.7 44.5711 67.3483 44.8485Z" fill="#E9E7EF"/>
<path id="Vector_31" d="M71.9978 44.6208C72.5036 44.0352 73.1414 43.8412 73.9111 44.0386C74.2742 44.1315 74.5262 44.3376 74.6675 44.657C74.6702 44.6622 74.6735 44.6667 74.6782 44.6702C74.6829 44.6736 74.6883 44.6758 74.6936 44.6767C74.699 44.6776 74.705 44.677 74.7104 44.6751C74.7157 44.6732 74.7204 44.6699 74.7238 44.6657C75.1519 44.1833 75.6477 43.9488 76.2104 43.9622C76.9809 43.9803 77.5382 44.4178 77.5617 45.2217C77.5811 45.8796 77.5858 46.931 77.5764 48.3758C77.5764 48.4045 77.5624 48.4187 77.5336 48.4187H76.8308C76.8073 48.4187 76.7959 48.4071 76.7953 48.3839C76.7919 47.5125 76.7919 46.642 76.7953 45.7724C76.7966 45.4676 76.7939 45.0851 76.5929 44.8526C76.1293 44.3186 75.1526 44.6697 74.9268 45.2385C74.8584 45.41 74.8229 45.7677 74.8196 46.3117C74.8156 46.9924 74.8156 47.6822 74.8196 48.3812C74.8196 48.3912 74.8156 48.4007 74.8089 48.4077C74.8015 48.4148 74.7921 48.4187 74.7821 48.4187H74.0646C74.0558 48.4187 74.0471 48.4152 74.0411 48.4089C74.0344 48.4026 74.0311 48.3941 74.0311 48.3852C74.0304 47.4245 74.029 46.4643 74.0277 45.5044C74.027 45.2344 73.9567 44.9162 73.7336 44.7487C73.4475 44.5337 72.8935 44.5685 72.6094 44.7534C72.1431 45.0569 72.0748 45.5085 72.0681 46.0283C72.0581 46.8135 72.0527 47.5992 72.0527 48.3852C72.0527 48.4075 72.0413 48.4187 72.0192 48.4187H71.3084C71.2809 48.4187 71.2668 48.4047 71.2668 48.3765V44.0868C71.2668 44.0797 71.2695 44.0729 71.2749 44.0679C71.2802 44.0628 71.2869 44.06 71.2943 44.06L71.9375 44.0661C71.9596 44.0661 71.9703 44.0768 71.9703 44.0982L71.971 44.6107C71.971 44.6138 71.9723 44.6168 71.9736 44.6193C71.9757 44.6218 71.9783 44.6237 71.981 44.6248C71.9837 44.6259 71.987 44.6261 71.9897 44.6254C71.9931 44.6247 71.9958 44.6231 71.9978 44.6208Z" fill="#E9E7EF"/>
<path id="Vector_32" d="M79.4732 44.628C79.967 44.0407 80.6007 43.8395 81.3732 44.0244C81.7309 44.1102 81.9922 44.3272 82.1564 44.6756C82.1664 44.6975 82.1798 44.6993 82.1952 44.681C82.7037 44.0642 83.3294 43.8427 84.0724 44.0164C84.8469 44.1973 85.0472 44.7768 85.0492 45.4997C85.0519 46.4635 85.0526 47.4289 85.0505 48.3958C85.0505 48.4017 85.0479 48.4073 85.0438 48.4115C85.0398 48.4156 85.0338 48.418 85.0278 48.418L84.3002 48.4186C84.2754 48.4186 84.2634 48.4064 84.2634 48.3818C84.266 47.4028 84.264 46.4255 84.2573 45.4501C84.2493 44.2669 82.7365 44.4043 82.3982 45.2705C82.3359 45.43 82.3044 45.671 82.3044 45.9934C82.3044 46.7902 82.3044 47.5859 82.3044 48.3804C82.3044 48.3904 82.3004 48.3999 82.2937 48.407C82.2863 48.414 82.277 48.418 82.2669 48.418L81.5347 48.4186C81.5253 48.4186 81.5166 48.415 81.5099 48.4086C81.5032 48.4022 81.4998 48.3935 81.4998 48.3845C81.5032 47.3849 81.5005 46.3862 81.4931 45.3884C81.4898 44.9268 81.2325 44.6415 80.7662 44.6059C79.9509 44.543 79.5449 45.1587 79.5422 45.9123C79.5402 46.7382 79.5395 47.5656 79.5416 48.3945C79.5416 48.4009 79.5389 48.407 79.5349 48.4116C79.5302 48.4161 79.5241 48.4186 79.5181 48.4186H78.7818C78.7758 48.4186 78.7704 48.4175 78.7651 48.4153C78.7597 48.4131 78.755 48.4099 78.751 48.4059C78.747 48.4018 78.7436 48.3971 78.7416 48.3918C78.7396 48.3865 78.7383 48.3808 78.7383 48.3751L78.7403 44.0901C78.7403 44.0833 78.743 44.0769 78.7477 44.0721C78.7524 44.0673 78.7591 44.0646 78.7658 44.0646L79.4149 44.064C79.4457 44.064 79.4605 44.0792 79.4598 44.1095L79.4491 44.6193C79.4491 44.6221 79.4498 44.6248 79.4511 44.627C79.4531 44.6292 79.4551 44.6309 79.4578 44.6319C79.4605 44.6328 79.4632 44.6329 79.4658 44.6323C79.4685 44.6316 79.4712 44.6301 79.4732 44.628Z" fill="#E9E7EF"/>
<path id="Vector_33" d="M86.7797 46.4724C86.832 47.9878 88.8365 48.5224 89.3805 47.0606C89.3919 47.0302 89.4133 47.0168 89.4455 47.0204L90.1744 47.1015C90.2005 47.1046 90.2092 47.1184 90.2012 47.143C89.8809 48.1781 88.9685 48.5861 87.9448 48.5084C86.8856 48.4286 86.1433 47.8076 85.9879 46.7095C85.4901 43.1876 90.4357 42.9839 90.2367 46.386C90.2347 46.4123 90.2206 46.4255 90.1945 46.4255H86.8253C86.7938 46.4255 86.7791 46.4411 86.7797 46.4724ZM86.8313 45.8306L89.4013 45.8212C89.4039 45.8212 89.4066 45.8201 89.4086 45.8182C89.41 45.8164 89.4113 45.8138 89.4113 45.8111V45.8044C89.41 45.475 89.274 45.1594 89.0321 44.9272C88.7903 44.6951 88.4633 44.5652 88.1223 44.5664H88.1022C87.9334 44.5669 87.7666 44.5996 87.6105 44.6626C87.4551 44.7256 87.3137 44.8177 87.1944 44.9335C87.0759 45.0493 86.9814 45.1867 86.9171 45.3377C86.8534 45.4888 86.8206 45.6506 86.8213 45.8138V45.8205C86.8213 45.8232 86.8226 45.8257 86.824 45.8276C86.826 45.8295 86.8286 45.8306 86.8313 45.8306Z" fill="#E9E7EF"/>
<path id="Vector_34" d="M91.9384 44.6724C92.3906 43.9428 92.9078 43.7532 93.693 44.1746C93.7031 44.1798 93.7104 44.1887 93.7145 44.1992C93.7185 44.2099 93.7178 44.2216 93.7138 44.2322L93.4719 44.8358C93.4612 44.8631 93.4425 44.8709 93.415 44.8593C92.408 44.4164 92.0061 45.1467 91.9947 46.0283C91.9853 46.8157 91.9826 47.6043 91.986 48.3939C91.986 48.3971 91.9853 48.4002 91.984 48.4032C91.9826 48.4061 91.9813 48.4087 91.9786 48.411C91.9766 48.4132 91.9739 48.415 91.9712 48.4162C91.9679 48.4175 91.9652 48.4181 91.9619 48.4181L91.2403 48.4187C91.2122 48.4187 91.1981 48.4049 91.1981 48.3772V44.0975C91.1981 44.0752 91.2095 44.0641 91.2316 44.0641H91.8674C91.8888 44.0641 91.8996 44.075 91.9002 44.0969L91.9076 44.6637C91.9076 44.6672 91.9089 44.6707 91.9109 44.6735C91.913 44.6764 91.9163 44.6784 91.9197 44.6794C91.923 44.6804 91.927 44.6802 91.9304 44.6789C91.9337 44.6777 91.9364 44.6754 91.9384 44.6724Z" fill="#E9E7EF"/>
<path id="Vector_35" d="M95.3619 47.7106C96.1176 48.213 97.0877 47.791 97.2157 46.8738C97.2177 46.8593 97.2257 46.8463 97.2371 46.8373C97.2485 46.8285 97.2632 46.8245 97.278 46.8262L97.966 46.9093C97.9895 46.912 97.9988 46.9249 97.9942 46.9482C97.5989 49.0746 94.5037 49.0304 94.0428 46.9696C93.7963 45.8669 94.0415 44.5424 95.2387 44.1036C96.3146 43.7096 97.6344 44.0573 97.9265 45.3048C97.9325 45.328 97.9231 45.3411 97.8997 45.3443L97.1983 45.4435C97.1741 45.447 97.1594 45.437 97.1534 45.4133C96.9859 44.738 96.4245 44.4573 95.7672 44.61C95.2494 44.7306 94.9345 45.0904 94.8219 45.6893C94.698 46.3492 94.7302 47.2905 95.3619 47.7106Z" fill="#E9E7EF"/>
<path id="Vector_36" d="M99.2477 46.4516C99.2605 47.971 101.305 48.5418 101.84 47.0579C101.85 47.0289 101.871 47.0162 101.901 47.0197L102.652 47.1034C102.656 47.104 102.659 47.1053 102.662 47.1074C102.666 47.1095 102.669 47.1122 102.671 47.1154C102.673 47.1187 102.674 47.1223 102.675 47.1262C102.675 47.13 102.675 47.1339 102.674 47.1376C102.332 48.1935 101.404 48.6115 100.342 48.5023C99.304 48.3958 98.5932 47.77 98.4512 46.6928C97.9836 43.1461 102.943 43.0302 102.699 46.3859C102.697 46.4123 102.682 46.4255 102.656 46.4255H99.2732C99.2665 46.4255 99.2598 46.4282 99.2551 46.4331C99.2504 46.438 99.2477 46.4447 99.2477 46.4516ZM99.3027 45.8299L101.875 45.8259C101.878 45.8259 101.881 45.8248 101.883 45.8229C101.884 45.821 101.885 45.8185 101.885 45.8158V45.8078C101.885 45.6443 101.852 45.4826 101.787 45.3316C101.722 45.1808 101.627 45.0438 101.507 44.9284C101.388 44.813 101.246 44.7216 101.089 44.6594C100.933 44.5972 100.766 44.5653 100.597 44.5657H100.576C100.235 44.5664 99.9083 44.6981 99.6678 44.9317C99.4273 45.1654 99.292 45.482 99.2926 45.8118V45.8198C99.2926 45.8225 99.294 45.825 99.2953 45.8269C99.2973 45.8288 99.3 45.8299 99.3027 45.8299Z" fill="#E9E7EF"/>
<path id="Vector_37" d="M117.89 44.6159C118.421 44.0044 119.1 43.8133 119.926 44.0424C120.818 44.2903 120.898 44.8966 120.914 45.7789C120.93 46.6472 120.934 47.517 120.925 48.3884C120.925 48.3964 120.922 48.4041 120.915 48.4098C120.91 48.4154 120.902 48.4185 120.894 48.4185H120.157C120.148 48.4185 120.14 48.4148 120.133 48.4083C120.126 48.4018 120.123 48.3929 120.123 48.3837C120.126 47.4288 120.125 46.4745 120.121 45.521C120.118 44.8966 119.698 44.5951 119.108 44.5971C118.431 44.5991 117.946 45.0882 117.938 45.7856C117.927 46.6525 117.925 47.5215 117.932 48.3924C117.932 48.3957 117.932 48.399 117.93 48.4021C117.93 48.4052 117.928 48.408 117.926 48.4104C117.923 48.4127 117.92 48.4146 117.917 48.4159C117.914 48.4172 117.911 48.4179 117.907 48.4179L117.176 48.4185C117.167 48.4185 117.158 48.415 117.152 48.4087C117.146 48.4025 117.142 48.3939 117.142 48.385V44.0947C117.142 44.0732 117.153 44.0625 117.174 44.0625L117.803 44.0618C117.832 44.0618 117.846 44.0761 117.846 44.1047V44.5991C117.846 44.6042 117.848 44.6092 117.85 44.6134C117.853 44.6175 117.857 44.6207 117.863 44.6225C117.867 44.6243 117.872 44.6246 117.877 44.6235C117.882 44.6223 117.887 44.6196 117.89 44.6159Z" fill="#E9E7EF"/>
<path id="Vector_38" d="M132.758 45.3455C132.829 45.4679 132.927 45.5449 133.053 45.5766C133.857 45.7807 134.466 45.9516 134.879 46.0891C135.955 46.4468 135.851 47.8276 134.926 48.2651C133.845 48.7756 132.071 48.6115 131.812 47.159C131.806 47.13 131.818 47.1132 131.848 47.1088L132.531 47.0076C132.557 47.004 132.572 47.0145 132.578 47.0391C132.685 47.5402 132.996 47.8249 133.511 47.8933C133.83 47.9355 134.294 47.9114 134.577 47.6983C134.85 47.492 134.975 47.1255 134.679 46.8723C134.543 46.7564 134.252 46.6726 134.068 46.6344C133.535 46.5232 132.58 46.3289 132.203 45.9363C131.825 45.5424 131.849 44.8584 132.225 44.4564C132.626 44.0277 133.387 43.9131 133.94 43.9694C134.724 44.0484 135.333 44.3184 135.474 45.1505C135.475 45.1549 135.475 45.1595 135.474 45.1638C135.473 45.1682 135.471 45.1723 135.468 45.1759C135.466 45.1794 135.462 45.1825 135.459 45.1847C135.455 45.1868 135.451 45.1882 135.446 45.1887L134.748 45.2744C134.723 45.2776 134.707 45.2666 134.701 45.2416C134.452 44.1268 132.286 44.5201 132.758 45.3455Z" fill="#E9E7EF"/>
<path id="Vector_39" d="M139.828 44.6527C139.917 44.5402 140.007 44.3821 140.076 44.3017C140.484 43.8287 141.068 43.9118 141.575 44.1724C141.585 44.1774 141.592 44.1857 141.596 44.196C141.6 44.2064 141.6 44.2177 141.596 44.228L141.351 44.8457C141.343 44.868 141.327 44.874 141.306 44.8638C140.155 44.3245 139.877 45.3435 139.873 46.209C139.869 46.9366 139.869 47.6648 139.872 48.3937C139.872 48.3969 139.871 48.4 139.87 48.403C139.869 48.4059 139.867 48.4086 139.865 48.4108C139.863 48.413 139.86 48.4148 139.857 48.4161C139.854 48.4173 139.851 48.4179 139.848 48.4179L139.126 48.4185C139.098 48.4185 139.083 48.4047 139.083 48.377V44.0873C139.083 44.0804 139.086 44.0737 139.092 44.0688C139.096 44.0639 139.103 44.0612 139.11 44.0612L139.755 44.0652C139.778 44.0652 139.789 44.0766 139.788 44.0994L139.784 44.6373C139.783 44.686 139.798 44.6911 139.828 44.6527Z" fill="#E9E7EF"/>
<path id="Vector_40" d="M130.152 47.8082C129.656 48.3875 129.058 48.6137 128.359 48.4869C127.625 48.3543 127.133 47.9429 127.115 47.1658C127.102 46.5744 127.101 45.5507 127.113 44.0947C127.113 44.0741 127.123 44.0639 127.143 44.0639H127.86C127.884 44.0639 127.896 44.0762 127.896 44.1007C127.895 45.0445 127.893 45.9864 127.89 46.9266C127.888 47.7768 128.668 48.0521 129.364 47.7781C130.002 47.5269 130.085 46.9775 130.087 46.3464C130.091 45.5916 130.091 44.8384 130.089 44.0867C130.089 44.0829 130.089 44.0792 130.091 44.0757C130.092 44.0722 130.094 44.0691 130.097 44.0664C130.099 44.0637 130.103 44.0615 130.106 44.0601C130.11 44.0586 130.113 44.0579 130.117 44.0579L130.844 44.0666C130.866 44.067 130.876 44.0778 130.876 44.0987V48.3911C130.876 48.3982 130.874 48.405 130.868 48.4101C130.864 48.4151 130.857 48.4179 130.85 48.4179L130.206 48.4186C130.184 48.4186 130.173 48.4074 130.173 48.3851V47.8156C130.173 47.8133 130.172 47.8109 130.171 47.809C130.17 47.807 130.168 47.8056 130.166 47.8048C130.164 47.804 130.161 47.8039 130.158 47.8045C130.156 47.8051 130.154 47.8064 130.152 47.8082Z" fill="#E9E7EF"/>
<path id="Vector_41" d="M143.8 47.4894C144.203 46.3478 144.635 45.2176 145.097 44.0988C145.106 44.0755 145.124 44.064 145.149 44.064H145.847C145.873 44.064 145.881 44.076 145.872 44.1001C144.905 46.5495 144.238 48.2168 143.873 49.102C143.548 49.8905 142.983 50.4024 142.078 50.0995C142.054 50.0915 142.04 50.0748 142.037 50.0493L141.96 49.4537C141.956 49.4234 141.97 49.411 142 49.4169C142.886 49.5884 143.124 49.2822 143.375 48.4427C143.383 48.4186 143.381 48.395 143.372 48.3717L141.648 44.0988C141.638 44.0738 141.646 44.0613 141.674 44.0613L142.445 44.0653C142.475 44.0653 142.496 44.0794 142.506 44.1075L143.782 47.4901C143.788 47.507 143.794 47.5068 143.8 47.4894Z" fill="#E9E7EF"/>
<path id="Vector_42" d="M56.0783 44.6501L55.8163 44.8926C55.7784 44.8189 55.7728 44.7416 55.7996 44.6608C55.8054 44.6429 55.8177 44.6344 55.8364 44.6353L56.0783 44.6501Z" fill="#E9E7EF"/>
<path id="Vector_43" d="M52.8477 45.2275C52.9347 45.3419 52.9801 45.4656 52.9836 45.5987C52.2159 46.1998 51.4343 46.7836 50.6388 47.3499C50.5714 47.2982 50.5288 47.2273 50.5109 47.1376C51.3126 46.5297 52.0915 45.893 52.8477 45.2275Z" fill="#E9E7EF"/>
<path id="Vector_44" d="M54.9842 45.2864C55.0146 45.4021 55.0155 45.5184 54.9869 45.6354L53.8842 46.5425L53.8982 46.1432L54.9842 45.2864Z" fill="#E9E7EF"/>
<path id="Vector_45" d="M52.985 46.8601C52.9542 47.1125 52.8445 47.3249 52.656 47.4972L52.3237 47.7458C52.0901 47.894 51.8358 47.9381 51.5607 47.8778L52.985 46.8601Z" fill="#E9E7EF"/>
<path id="Vector_46" d="M49.8617 47.6284C49.926 47.6686 49.9707 47.7244 49.9957 47.7959C49.713 47.9788 46.4517 50.0101 46.3371 49.9572C46.3232 49.9509 46.323 49.944 46.3364 49.9364C47.5549 49.2334 48.73 48.464 49.8617 47.6284Z" fill="#E9E7EF"/>
<path id="Vector_47" d="M51.2679 48.4993C46.3781 51.8089 41.0465 53.992 35.2728 55.0487C23.2593 57.2475 10.6984 54.4049 0.00665629 48.8269C0.000850061 48.8238 -0.000936468 48.8189 0.0012967 48.8122C0.0026366 48.8086 0.00509305 48.8075 0.00866612 48.8088C10.5356 52.9451 22.0681 56.0121 33.4968 54.6307C39.7434 53.8759 45.4996 51.793 50.7654 48.3821C50.9383 48.3964 51.1058 48.4355 51.2679 48.4993Z" fill="#E9E7EF"/>
<path id="Vector_48" d="M44.8873 50.7267L44.8538 50.71C44.8926 50.6787 44.9357 50.6577 44.9831 50.647C45.021 50.6381 45.0255 50.6465 44.9965 50.6724C44.9652 50.7001 44.9288 50.7182 44.8873 50.7267Z" fill="#E9E7EF"/>
<path id="Vector_49" d="M44.8536 50.71L44.8871 50.7267C43.0198 51.6865 41.045 52.4489 38.9628 53.0139C38.8493 53.0447 38.7515 53.0662 38.6693 53.0782C38.6197 53.0854 38.6189 53.082 38.6666 53.0682C40.789 52.4389 42.8514 51.6528 44.8536 50.71Z" fill="#E9E7EF"/>
<path id="Vector_50" d="M58.3534 55.8712H57.453C57.443 55.8712 57.4335 55.8672 57.4264 55.8602C57.4194 55.8532 57.4154 55.8437 57.4154 55.8337V55.212C57.4154 55.1825 57.4302 55.1677 57.4596 55.1677H59.1908C59.2131 55.1677 59.2243 55.1789 59.2243 55.2012V56.7917C59.2243 56.8118 59.2163 56.8283 59.2002 56.8413C58.1068 57.6948 56.2042 57.7799 55.5617 56.3368C55.0291 55.1403 55.482 53.5404 56.8788 53.2242C57.1396 53.1653 57.4215 53.1547 57.7243 53.1927C58.4525 53.2832 58.9764 53.6222 59.1607 54.3564C59.1674 54.3824 59.1575 54.3978 59.1312 54.4027L58.3694 54.5447C58.3485 54.5487 58.3344 54.5405 58.3272 54.5199C58.1937 54.1416 57.9389 53.9348 57.5628 53.8995C56.444 53.7943 56.1198 54.7182 56.235 55.6528C56.3757 56.7991 57.5293 57.0148 58.3547 56.4051C58.3761 56.3895 58.3869 56.3685 58.3869 56.3422V55.9047C58.3869 55.8824 58.3757 55.8712 58.3534 55.8712Z" fill="#E9E7EF"/>
<path id="Vector_51" d="M80.864 55.8711H79.9589C79.9542 55.8711 79.9502 55.8703 79.9462 55.8685C79.9415 55.8668 79.9381 55.8643 79.9348 55.8611C79.9321 55.8579 79.9294 55.8541 79.9281 55.85C79.9261 55.8459 79.9254 55.8414 79.9254 55.837L79.9314 55.2045C79.9314 55.18 79.9435 55.1677 79.9683 55.1677H81.7015C81.7236 55.1677 81.735 55.1789 81.735 55.2012V56.7943C81.735 56.8185 81.7256 56.8379 81.7061 56.8526C80.4332 57.8234 78.3182 57.7269 77.9236 55.8497C77.5947 54.2847 78.6036 52.9863 80.247 53.194C80.9652 53.2845 81.4884 53.6248 81.6693 54.3463C81.6706 54.3526 81.6713 54.3591 81.67 54.3655C81.6693 54.3719 81.6666 54.378 81.6633 54.3835C81.6599 54.3889 81.6552 54.3937 81.6499 54.3973C81.6445 54.4009 81.6385 54.4034 81.6318 54.4046L80.8801 54.5446C80.8761 54.5454 80.8714 54.5446 80.8674 54.5424C80.8633 54.5402 80.8607 54.5367 80.8587 54.5326C80.6583 54.048 80.2905 53.8376 79.7539 53.9015C78.7443 54.0207 78.6076 55.0665 78.8006 55.8591C79.0491 56.8788 80.1472 56.9464 80.8667 56.4038C80.8875 56.3881 80.8975 56.3674 80.8975 56.3415V55.9046C80.8975 55.8823 80.8861 55.8711 80.864 55.8711Z" fill="#E9E7EF"/>
<path id="Vector_52" d="M97.0315 55.4028C97.0221 54.5098 97.3175 53.6998 98.1925 53.3307C98.6454 53.1391 99.1117 53.1089 99.5913 53.2402C100.375 53.4546 100.841 53.964 100.992 54.7684C101.272 56.2611 100.466 57.6237 98.7954 57.4502C97.6753 57.3343 97.0429 56.523 97.0315 55.4028ZM99.4031 56.6878C100.571 56.2765 100.478 53.7883 98.9683 53.8995C98.4149 53.9397 98.0619 54.2633 97.9486 54.7999C97.8455 55.289 97.8642 55.9294 98.1784 56.3361C98.4578 56.6992 98.9824 56.8359 99.4031 56.6878Z" fill="#E9E7EF"/>
<path id="Vector_53" d="M60.8323 55.605V56.6549C60.8323 56.6646 60.8362 56.674 60.8431 56.6809C60.85 56.6878 60.8594 56.6917 60.8692 56.6917H63.1068C63.1166 56.6917 63.126 56.6956 63.1329 56.7025C63.1398 56.7094 63.1436 56.7188 63.1436 56.7285V57.3583C63.1436 57.3681 63.1398 57.3775 63.1329 57.3844C63.126 57.3913 63.1166 57.3951 63.1068 57.3951H60.0317C60.0219 57.3951 60.0126 57.3913 60.0057 57.3844C59.9988 57.3775 59.9949 57.3681 59.9949 57.3583V53.2783C59.9949 53.2685 59.9988 53.2591 60.0057 53.2522C60.0126 53.2453 60.0219 53.2415 60.0317 53.2415H63.0391C63.0489 53.2415 63.0583 53.2453 63.0652 53.2522C63.0721 53.2591 63.076 53.2685 63.076 53.2783L63.0766 53.9081C63.0766 53.9178 63.0728 53.9272 63.0659 53.9341C63.059 53.941 63.0496 53.9449 63.0398 53.9449H60.8692C60.8594 53.9449 60.85 53.9488 60.8431 53.9557C60.8362 53.9626 60.8323 53.972 60.8323 53.9817V54.8292C60.8323 54.839 60.8362 54.8484 60.8431 54.8553C60.85 54.8622 60.8594 54.8661 60.8692 54.8661H62.8723C62.8821 54.8661 62.8915 54.87 62.8984 54.8769C62.9053 54.8838 62.9092 54.8931 62.9092 54.9029V55.5334C62.9092 55.5431 62.9053 55.5525 62.8984 55.5594C62.8915 55.5663 62.8821 55.5702 62.8723 55.5702L60.8692 55.5682C60.8594 55.5682 60.85 55.5721 60.8431 55.579C60.8362 55.5859 60.8323 55.5953 60.8323 55.605Z" fill="#E9E7EF"/>
<path id="Vector_54" d="M64.2972 57.3951H63.4873C63.4815 57.3952 63.4757 57.3939 63.4706 57.3912C63.4655 57.3885 63.4611 57.3846 63.4577 57.3799C63.4544 57.3751 63.4524 57.3696 63.4517 57.3639C63.451 57.3582 63.4517 57.3523 63.4538 57.3469L65.0456 53.2642C65.0481 53.2576 65.0526 53.2518 65.0585 53.2478C65.0643 53.2437 65.0713 53.2415 65.0784 53.2415H65.9091C65.9162 53.2415 65.9231 53.2436 65.9289 53.2475C65.9347 53.2514 65.9393 53.2571 65.942 53.2636L67.5766 57.3456C67.5787 57.3509 67.58 57.3568 67.5793 57.3626C67.5787 57.3683 67.5766 57.3739 67.5733 57.3787C67.5699 57.3836 67.5659 57.3876 67.5606 57.3903C67.5552 57.393 67.5498 57.3945 67.5438 57.3945L66.7097 57.3951C66.7025 57.3952 66.6954 57.3931 66.6894 57.389C66.6834 57.385 66.6788 57.3791 66.6762 57.3724L66.3299 56.4632C66.3273 56.4565 66.3227 56.4506 66.3167 56.4466C66.3107 56.4425 66.3036 56.4404 66.2964 56.4405H64.6938C64.6865 56.4405 64.6794 56.4427 64.6733 56.4469C64.6674 56.4511 64.6628 56.457 64.6604 56.4639L64.3307 57.3717C64.3283 57.3786 64.3237 57.3846 64.3177 57.3887C64.3117 57.3929 64.3045 57.3951 64.2972 57.3951ZM64.9344 55.7236C64.9331 55.7272 64.9327 55.7312 64.9332 55.735C64.9338 55.7388 64.9352 55.7424 64.9374 55.7456C64.9397 55.7487 64.9426 55.7513 64.946 55.7531C64.9494 55.7548 64.9533 55.7558 64.9571 55.7558L66.019 55.7524C66.023 55.7525 66.0268 55.7516 66.0303 55.7497C66.0339 55.7479 66.0368 55.7453 66.0391 55.742C66.0414 55.7388 66.0428 55.7351 66.0433 55.7312C66.0437 55.7272 66.0432 55.7233 66.0418 55.7196L65.5058 54.2698C65.5042 54.2651 65.5011 54.261 65.4971 54.2581C65.493 54.2552 65.4881 54.2536 65.483 54.2536C65.478 54.2536 65.4731 54.2552 65.469 54.2581C65.465 54.261 65.4619 54.2651 65.4603 54.2698L64.9344 55.7236Z" fill="#E9E7EF"/>
<path id="Vector_55" d="M70.3637 55.5776C70.9707 55.9555 71.3747 56.7454 71.7405 57.353C71.7572 57.3811 71.7498 57.3952 71.717 57.3952H70.8112C70.7831 57.3952 70.761 57.3836 70.7456 57.3604C70.4575 56.9236 70.1647 56.4926 69.8666 56.0674C69.5564 55.6245 69.4043 55.729 68.9287 55.6533C68.922 55.6522 68.9146 55.6525 68.9079 55.6544C68.9005 55.6563 68.8945 55.6597 68.8892 55.6643C68.8838 55.6689 68.8791 55.6746 68.8764 55.681C68.8731 55.6874 68.8717 55.6945 68.8717 55.7016V57.3617C68.8717 57.384 68.8604 57.3952 68.8382 57.3952H68.0845C68.0711 57.3952 68.0584 57.3899 68.049 57.3805C68.0397 57.3711 68.0343 57.3583 68.0343 57.345V53.2904C68.0343 53.2793 68.039 53.2686 68.0464 53.2606C68.0544 53.2526 68.0651 53.2479 68.0765 53.2476C68.8382 53.2283 69.6006 53.2375 70.3624 53.275C71.1422 53.3132 71.5368 53.9604 71.3934 54.6812C71.2963 55.1703 70.9546 55.4595 70.3697 55.5488C70.3664 55.5494 70.3637 55.551 70.361 55.5533C70.359 55.5555 70.357 55.5585 70.357 55.5616C70.3564 55.5647 70.3564 55.5679 70.3577 55.5708C70.359 55.5736 70.361 55.576 70.3637 55.5776ZM68.8731 53.9972L68.8717 54.9445C68.8717 54.9584 68.8771 54.9717 68.8871 54.9815C68.8965 54.9913 68.9099 54.9968 68.924 54.9968L70.0167 54.9988C70.0884 54.9989 70.1594 54.9864 70.2257 54.9621C70.292 54.9377 70.3523 54.902 70.4032 54.8568C70.4535 54.8118 70.4944 54.7582 70.5218 54.6992C70.5493 54.6402 70.5634 54.577 70.5634 54.5131V54.434C70.5634 54.3051 70.5064 54.1813 70.4039 54.09C70.3014 53.9986 70.1627 53.9472 70.018 53.947L68.9253 53.945C68.9113 53.945 68.8979 53.9505 68.8885 53.9603C68.8784 53.9701 68.8731 53.9834 68.8731 53.9972Z" fill="#E9E7EF"/>
<path id="Vector_56" d="M72.984 53.241H72.2296C72.2069 53.241 72.1881 53.2596 72.1881 53.2825V57.3531C72.1881 57.376 72.2069 57.3947 72.2296 57.3947H72.984C73.0068 57.3947 73.0255 57.376 73.0255 57.3531V53.2825C73.0255 53.2596 73.0068 53.241 72.984 53.241Z" fill="#E9E7EF"/>
<path id="Vector_57" d="M74.616 54.7589L74.6167 57.3281C74.6167 57.3728 74.5946 57.3951 74.5497 57.3951H73.8797C73.8663 57.3951 73.8536 57.3899 73.8442 57.3804C73.8348 57.371 73.8295 57.3582 73.8295 57.3449V53.2917C73.8295 53.2784 73.8348 53.2656 73.8442 53.2562C73.8536 53.2467 73.8663 53.2415 73.8797 53.2415H74.6033C74.616 53.2415 74.6287 53.2447 74.6401 53.2511C74.6515 53.2574 74.6609 53.2666 74.6676 53.2776L76.3157 55.9661C76.3177 55.9688 76.3197 55.9709 76.323 55.9721C76.3257 55.9732 76.3291 55.9734 76.3324 55.9726C76.3351 55.9718 76.3378 55.97 76.3398 55.9674C76.3418 55.9649 76.3425 55.9619 76.3425 55.9588L76.3411 53.2689C76.3411 53.2654 76.3418 53.2619 76.3431 53.2587C76.3445 53.2554 76.3465 53.2524 76.3491 53.25C76.3518 53.2475 76.3545 53.2455 76.3579 53.2441C76.3612 53.2428 76.3652 53.2421 76.3686 53.2421L77.0868 53.2415C77.1149 53.2415 77.129 53.2553 77.129 53.283V57.3449C77.129 57.3784 77.1122 57.3951 77.0787 57.3951H76.3418C76.3244 57.3951 76.3076 57.3908 76.2929 57.3824C76.2775 57.3741 76.2647 57.3621 76.256 57.3476L74.6522 54.7488C74.6281 54.71 74.616 54.7133 74.616 54.7589Z" fill="#E9E7EF"/>
<path id="Vector_58" d="M84.9527 55.8703C84.9541 56.4592 85.2737 56.7895 85.8739 56.7419C86.3489 56.704 86.5854 56.4427 86.5847 55.9581C86.5827 55.0635 86.578 54.1671 86.5707 53.2689C86.5707 53.2654 86.5713 53.262 86.5727 53.2587C86.574 53.2555 86.576 53.2525 86.578 53.25C86.5807 53.2476 86.5841 53.2455 86.5868 53.2442C86.5901 53.2428 86.5941 53.2421 86.5975 53.2421L87.3766 53.2415C87.4014 53.2415 87.4135 53.2537 87.4135 53.2783C87.4155 54.2511 87.461 55.2593 87.3753 56.2247C87.3136 56.9143 86.9405 57.3136 86.2551 57.4226C85.5001 57.5425 84.5849 57.4454 84.25 56.6508C84.1522 56.419 84.1173 56.0117 84.1167 55.7832C84.112 54.9449 84.1113 54.1052 84.1146 53.2642C84.1146 53.2584 84.1166 53.2528 84.1213 53.2486C84.1254 53.2445 84.1307 53.2421 84.1367 53.2421L84.9146 53.2415C84.938 53.2415 84.9501 53.2533 84.9501 53.277C84.9507 54.1434 84.9521 55.0079 84.9527 55.8703Z" fill="#E9E7EF"/>
<path id="Vector_59" d="M89.138 55.8892V57.3538C89.138 57.3814 89.1239 57.3953 89.0958 57.3953H88.3508C88.3173 57.3953 88.3005 57.3785 88.3005 57.345V53.2751C88.3005 53.2681 88.3032 53.2614 88.3079 53.2564C88.3133 53.2514 88.32 53.2485 88.3267 53.2483C88.9718 53.2336 89.6177 53.2347 90.2648 53.2517C91.0527 53.2718 91.5277 53.874 91.4694 54.6271C91.3709 55.8993 90.1637 55.8638 89.217 55.8142C89.1641 55.8115 89.138 55.8365 89.138 55.8892ZM89.136 53.9806L89.14 55.0887C89.14 55.0968 89.1433 55.1047 89.1487 55.1104C89.1547 55.1162 89.1628 55.1195 89.1708 55.1195L89.9486 55.1168C90.0357 55.1165 90.1221 55.1015 90.2025 55.0725C90.2829 55.0436 90.3559 55.0014 90.4176 54.9482C90.4792 54.8951 90.5275 54.8321 90.5609 54.7629C90.5938 54.6936 90.6105 54.6195 90.6105 54.5447V54.5138C90.6099 54.3628 90.5395 54.2183 90.4142 54.1121C90.2896 54.0058 90.1208 53.9465 89.9446 53.9471L89.1668 53.9497C89.1587 53.9497 89.1507 53.953 89.1447 53.9588C89.1393 53.9645 89.136 53.9724 89.136 53.9806Z" fill="#E9E7EF"/>
<path id="Vector_60" d="M94.5453 54.9337L96.1954 54.9317C96.2068 54.9317 96.2182 54.9364 96.2263 54.9445C96.2343 54.9526 96.239 54.9638 96.239 54.9753L96.2396 55.5936C96.2396 55.6052 96.235 55.6163 96.2269 55.6245C96.2189 55.6326 96.2075 55.6372 96.1961 55.6372L94.5413 55.6345C94.5299 55.6345 94.5185 55.6391 94.5105 55.6472C94.5025 55.6554 94.4978 55.6665 94.4978 55.6781V57.3516C94.4978 57.3631 94.4931 57.3742 94.4851 57.3824C94.477 57.3906 94.4656 57.3951 94.4542 57.3951H93.7032C93.6918 57.3951 93.6804 57.3906 93.6724 57.3824C93.6644 57.3742 93.6597 57.3631 93.6597 57.3516L93.667 53.285C93.667 53.2735 93.6717 53.2624 93.6798 53.2542C93.6878 53.246 93.6992 53.2415 93.7106 53.2415H96.4641C96.4701 53.2415 96.4755 53.2426 96.4808 53.2447C96.4862 53.2469 96.4909 53.2502 96.4949 53.2542C96.4989 53.2583 96.5023 53.263 96.5043 53.2683C96.5063 53.2736 96.5076 53.2793 96.5076 53.285V53.9014C96.5076 53.907 96.5063 53.9127 96.5043 53.918C96.5023 53.9233 96.4989 53.9281 96.4949 53.9322C96.4909 53.9362 96.4862 53.9394 96.4808 53.9416C96.4755 53.9438 96.4701 53.9449 96.4641 53.9449H94.5393C94.5279 53.9449 94.5165 53.9495 94.5085 53.9576C94.5005 53.9658 94.4958 53.9769 94.4958 53.9885L94.5018 54.8902C94.5018 54.9017 94.5065 54.9128 94.5145 54.921C94.5226 54.9292 94.534 54.9337 94.5453 54.9337Z" fill="#E9E7EF"/>
<path id="Vector_61" d="M104.045 55.591C104.644 55.9635 105.043 56.7587 105.404 57.3556C105.42 57.3819 105.413 57.3951 105.382 57.3951H104.464C104.441 57.3951 104.423 57.3856 104.41 57.3663C104.112 56.9108 103.807 56.4617 103.496 56.0191C103.251 55.6714 102.993 55.6546 102.58 55.6586C102.551 55.6586 102.537 55.6729 102.537 55.7015V57.3616C102.537 57.3705 102.534 57.3791 102.527 57.3854C102.521 57.3916 102.512 57.3951 102.504 57.3951H101.735C101.726 57.3951 101.717 57.3914 101.711 57.3847C101.704 57.378 101.7 57.3691 101.7 57.3596V53.3071C101.7 53.266 101.721 53.245 101.761 53.2441C102.425 53.2347 103.097 53.2396 103.777 53.2589C104.523 53.2803 105.172 53.6481 105.093 54.4936C105.038 55.0838 104.649 55.4724 104.057 55.5394C104.051 55.54 104.046 55.5425 104.042 55.5463C104.037 55.5502 104.035 55.5553 104.033 55.5609C104.032 55.5666 104.033 55.5725 104.035 55.5779C104.037 55.5833 104.041 55.5878 104.045 55.591ZM102.534 54.0025L102.533 54.9431C102.533 54.9589 102.539 54.9741 102.55 54.9853C102.561 54.9964 102.576 55.0027 102.592 55.0027L103.647 55.0048C103.723 55.0049 103.799 54.9923 103.869 54.9678C103.939 54.9434 104.004 54.9074 104.057 54.8621C104.112 54.8167 104.155 54.7628 104.184 54.7035C104.213 54.6442 104.228 54.5806 104.228 54.5164V54.4346C104.228 54.3049 104.167 54.1805 104.059 54.0887C103.95 53.9968 103.802 53.9451 103.648 53.9449L102.594 53.9429C102.577 53.9429 102.563 53.9492 102.551 53.9604C102.54 53.9716 102.534 53.9867 102.534 54.0025Z" fill="#E9E7EF"/>
<path id="Vector_62" d="M109.992 53.9449H108.834C108.825 53.9449 108.817 53.9415 108.811 53.9355C108.805 53.9294 108.801 53.9213 108.801 53.9127V53.2736C108.801 53.2651 108.805 53.2569 108.811 53.2509C108.817 53.2449 108.825 53.2415 108.834 53.2415H112.053C112.062 53.2415 112.07 53.2447 112.076 53.2506C112.082 53.2565 112.085 53.2645 112.085 53.2729L112.096 53.9121C112.096 53.9164 112.095 53.9206 112.094 53.9246C112.092 53.9286 112.09 53.9322 112.086 53.9353C112.083 53.9383 112.079 53.9407 112.076 53.9424C112.072 53.944 112.067 53.9449 112.063 53.9449H110.894C110.885 53.9449 110.877 53.9483 110.871 53.9543C110.865 53.9604 110.861 53.9686 110.861 53.9771V57.3623C110.861 57.3708 110.858 57.379 110.852 57.385C110.846 57.3911 110.838 57.3945 110.829 57.3945L110.056 57.3951C110.047 57.3951 110.039 57.3917 110.033 57.3857C110.027 57.3797 110.024 57.3715 110.024 57.363V53.9771C110.024 53.9686 110.021 53.9604 110.015 53.9543C110.009 53.9483 110.001 53.9449 109.992 53.9449Z" fill="#E9E7EF"/>
<path id="Vector_63" d="M113.514 54.8828H115.076C115.087 54.8828 115.097 54.8787 115.104 54.8712C115.112 54.8639 115.116 54.8538 115.116 54.8433V53.281C115.116 53.2758 115.117 53.2707 115.118 53.2658C115.12 53.2611 115.124 53.2567 115.127 53.253C115.131 53.2494 115.135 53.2465 115.14 53.2445C115.145 53.2425 115.15 53.2415 115.155 53.2415H115.914C115.919 53.2415 115.924 53.2425 115.929 53.2445C115.934 53.2465 115.938 53.2494 115.942 53.253C115.945 53.2567 115.948 53.2611 115.95 53.2658C115.952 53.2707 115.953 53.2758 115.953 53.281V57.3556C115.953 57.3661 115.949 57.3762 115.942 57.3836C115.934 57.391 115.924 57.3951 115.914 57.3951H115.155C115.144 57.3951 115.134 57.391 115.127 57.3836C115.12 57.3762 115.116 57.3661 115.116 57.3556V55.6091C115.116 55.5986 115.112 55.5885 115.104 55.5811C115.097 55.5737 115.087 55.5695 115.076 55.5695H113.514C113.503 55.5695 113.493 55.5737 113.486 55.5811C113.478 55.5885 113.474 55.5986 113.474 55.6091V57.3556C113.474 57.3661 113.47 57.3762 113.463 57.3836C113.456 57.391 113.445 57.3951 113.435 57.3951H112.676C112.666 57.3951 112.656 57.391 112.648 57.3836C112.641 57.3762 112.637 57.3661 112.637 57.3556V53.2817C112.637 53.2711 112.641 53.2611 112.648 53.2537C112.656 53.2463 112.666 53.2421 112.676 53.2421L113.435 53.2415C113.44 53.2415 113.445 53.2425 113.45 53.2445C113.455 53.2465 113.459 53.2494 113.463 53.253C113.466 53.2567 113.47 53.2611 113.472 53.2658C113.473 53.2707 113.474 53.2758 113.474 53.281V54.8433C113.474 54.8538 113.478 54.8639 113.486 54.8712C113.493 54.8787 113.503 54.8828 113.514 54.8828Z" fill="#E9E7EF"/>
<path id="Vector_64" d="M117.645 55.6117V56.6481C117.645 56.6597 117.649 56.6708 117.658 56.679C117.666 56.6871 117.677 56.6917 117.688 56.6917H119.925C119.936 56.6917 119.947 56.6963 119.955 56.7044C119.964 56.7126 119.968 56.7237 119.968 56.7352V57.3516C119.968 57.3631 119.964 57.3742 119.955 57.3824C119.947 57.3906 119.936 57.3951 119.925 57.3951H116.851C116.845 57.3951 116.84 57.394 116.834 57.3919C116.829 57.3897 116.824 57.3864 116.82 57.3824C116.816 57.3783 116.813 57.3736 116.811 57.3683C116.809 57.363 116.807 57.3573 116.807 57.3516V53.285C116.807 53.2793 116.809 53.2736 116.811 53.2683C116.813 53.263 116.816 53.2583 116.82 53.2542C116.824 53.2502 116.829 53.2469 116.834 53.2447C116.84 53.2426 116.845 53.2415 116.851 53.2415H119.845C119.856 53.2415 119.868 53.246 119.876 53.2542C119.884 53.2624 119.888 53.2735 119.888 53.285L119.889 53.9014C119.889 53.9129 119.884 53.924 119.876 53.9322C119.868 53.9403 119.857 53.9449 119.846 53.9449H117.688C117.677 53.9449 117.666 53.9495 117.658 53.9576C117.649 53.9658 117.645 53.9769 117.645 53.9885V54.8225C117.645 54.8341 117.649 54.8452 117.658 54.8534C117.666 54.8615 117.677 54.8661 117.688 54.8661H119.689C119.7 54.8661 119.712 54.8706 119.72 54.8788C119.728 54.887 119.732 54.8981 119.732 54.9096V55.5267C119.732 55.5382 119.728 55.5493 119.72 55.5575C119.712 55.5656 119.7 55.5702 119.689 55.5702L117.688 55.5682C117.677 55.5682 117.666 55.5728 117.658 55.5809C117.649 55.5891 117.645 55.6002 117.645 55.6117Z" fill="#E9E7EF"/>
<path id="Vector_65" d="M123.122 55.6707V57.3583C123.122 57.3681 123.118 57.3775 123.111 57.3844C123.104 57.3913 123.095 57.3951 123.085 57.3951L122.321 57.3945C122.311 57.3945 122.302 57.3906 122.295 57.3837C122.288 57.3768 122.284 57.3674 122.284 57.3576V53.2783C122.284 53.2685 122.288 53.2591 122.295 53.2522C122.302 53.2453 122.311 53.2415 122.321 53.2415H125.094C125.104 53.2415 125.113 53.2453 125.12 53.2522C125.127 53.2591 125.131 53.2685 125.131 53.2783L125.132 53.9081C125.132 53.9178 125.128 53.9272 125.121 53.9341C125.114 53.941 125.105 53.9449 125.095 53.9449H123.159C123.149 53.9449 123.139 53.9488 123.132 53.9557C123.126 53.9626 123.122 53.972 123.122 53.9817V54.8962C123.122 54.906 123.126 54.9154 123.132 54.9223C123.139 54.9292 123.149 54.9331 123.159 54.9331H124.814C124.819 54.9331 124.824 54.9341 124.828 54.936C124.833 54.9378 124.837 54.9406 124.84 54.9441C124.844 54.9476 124.846 54.9518 124.848 54.9563C124.85 54.9608 124.851 54.9657 124.851 54.9706L124.845 55.601C124.845 55.6059 124.844 55.6107 124.842 55.6153C124.84 55.6198 124.837 55.6239 124.834 55.6273C124.83 55.6308 124.826 55.6334 124.821 55.6353C124.817 55.6371 124.812 55.6379 124.807 55.6379L123.159 55.6338C123.149 55.6338 123.139 55.6377 123.132 55.6446C123.126 55.6515 123.122 55.6609 123.122 55.6707Z" fill="#E9E7EF"/>
<path id="Vector_66" d="M126.654 55.9548C126.653 56.9737 128.235 57.0407 128.261 56.0713C128.286 55.1436 128.291 54.2142 128.274 53.283C128.274 53.2776 128.275 53.2722 128.277 53.2671C128.279 53.2621 128.282 53.2575 128.286 53.2536C128.29 53.2498 128.294 53.2467 128.299 53.2446C128.304 53.2425 128.309 53.2415 128.315 53.2415H129.071C129.096 53.2415 129.108 53.2537 129.108 53.2783C129.128 54.2055 129.129 55.1307 129.113 56.0539C129.098 56.8235 128.728 57.279 128.001 57.4206C127.527 57.5131 126.84 57.4735 126.438 57.2283C125.886 56.892 125.83 56.352 125.826 55.6868C125.821 54.8815 125.818 54.0744 125.817 53.2656C125.817 53.2625 125.818 53.2595 125.819 53.2566C125.82 53.2538 125.822 53.2512 125.824 53.249C125.826 53.2468 125.828 53.2451 125.832 53.2439C125.834 53.2427 125.837 53.2421 125.84 53.2421L126.622 53.2415C126.631 53.2415 126.64 53.2451 126.646 53.2514C126.653 53.2579 126.656 53.2666 126.656 53.2756C126.656 54.1693 126.655 55.0624 126.654 55.9548Z" fill="#E9E7EF"/>
<path id="Vector_67" d="M130.899 53.9449H129.732C129.724 53.9449 129.718 53.942 129.712 53.9369C129.707 53.9317 129.704 53.9247 129.704 53.9174V53.2689C129.704 53.2616 129.707 53.2547 129.712 53.2495C129.718 53.2443 129.724 53.2415 129.732 53.2415H132.961C132.968 53.2415 132.975 53.2443 132.98 53.2495C132.986 53.2547 132.988 53.2616 132.988 53.2689L132.992 53.9174C132.992 53.9247 132.989 53.9317 132.984 53.9369C132.978 53.942 132.971 53.9449 132.964 53.9449H131.792C131.784 53.9449 131.778 53.9478 131.772 53.9529C131.767 53.9581 131.764 53.9651 131.764 53.9724V57.3677C131.764 57.375 131.762 57.3819 131.756 57.3871C131.751 57.3923 131.744 57.3951 131.737 57.3951H130.954C130.947 57.3951 130.94 57.3923 130.935 57.3871C130.929 57.3819 130.927 57.375 130.927 57.3677V53.9724C130.927 53.9651 130.924 53.9581 130.919 53.9529C130.913 53.9478 130.907 53.9449 130.899 53.9449Z" fill="#E9E7EF"/>
<path id="Vector_68" d="M134.926 56.7185C135.405 56.8404 135.96 56.6615 135.978 56.0874C136.007 55.1548 136.013 54.2201 135.996 53.283C135.996 53.2776 135.996 53.2722 135.998 53.2671C136 53.2621 136.004 53.2575 136.007 53.2536C136.011 53.2498 136.015 53.2467 136.02 53.2446C136.025 53.2425 136.03 53.2415 136.036 53.2415H136.804C136.809 53.2415 136.814 53.2425 136.818 53.2445C136.824 53.2465 136.828 53.2494 136.831 53.253C136.835 53.2567 136.838 53.2611 136.84 53.2659C136.842 53.2707 136.842 53.2758 136.842 53.281C136.824 54.1318 136.818 54.9815 136.821 55.8301C136.824 56.5369 136.63 57.2122 135.861 57.3864C134.999 57.5814 133.904 57.4822 133.607 56.4914C133.586 56.4222 133.57 56.2473 133.56 55.9668C133.527 55.0736 133.515 54.178 133.523 53.2803C133.523 53.2701 133.528 53.2604 133.535 53.2532C133.542 53.2461 133.552 53.2421 133.562 53.2421L134.323 53.2415C134.346 53.2415 134.358 53.2528 134.358 53.2756C134.362 54.0197 134.364 54.7618 134.364 55.5019C134.365 56.0499 134.344 56.5698 134.926 56.7185Z" fill="#E9E7EF"/>
<path id="Vector_69" d="M140.077 55.6032C140.641 55.9542 141.056 56.7602 141.416 57.3544C141.432 57.3817 141.424 57.3953 141.393 57.3953H140.486C140.458 57.3953 140.435 57.3834 140.42 57.3598C140.119 56.9029 139.814 56.4513 139.505 56.0051C139.27 55.6681 138.985 55.6601 138.591 55.6635C138.564 55.6639 138.55 55.6775 138.55 55.7043L138.546 57.329C138.546 57.3732 138.524 57.3953 138.48 57.3953L137.75 57.3946C137.741 57.3946 137.732 57.391 137.725 57.3846C137.719 57.3782 137.715 57.3695 137.715 57.3604L137.714 53.2791C137.714 53.2754 137.715 53.2717 137.716 53.2683C137.717 53.2648 137.719 53.2617 137.722 53.259C137.724 53.2563 137.728 53.2542 137.731 53.2527C137.734 53.2512 137.738 53.2504 137.742 53.2503C138.429 53.2275 139.116 53.2331 139.802 53.267C140.545 53.3039 141.053 53.5431 141.094 54.3336C141.128 54.979 140.791 55.3881 140.084 55.561C140.079 55.5622 140.076 55.5646 140.072 55.5679C140.07 55.5713 140.068 55.5754 140.067 55.5799C140.066 55.5843 140.066 55.5889 140.068 55.593C140.07 55.5972 140.073 55.6007 140.077 55.6032ZM138.548 54.0194L138.546 54.9292C138.546 54.9496 138.554 54.9693 138.569 54.9837C138.583 54.9981 138.602 55.0062 138.623 55.0062L139.649 55.0082C139.727 55.0084 139.804 54.9961 139.875 54.9719C139.947 54.9479 140.012 54.9125 140.067 54.8679C140.122 54.8233 140.165 54.7703 140.196 54.712C140.225 54.6536 140.24 54.5911 140.24 54.5279V54.4261C140.24 54.2985 140.178 54.1761 140.068 54.0858C139.957 53.9955 139.807 53.9446 139.65 53.9444L138.625 53.9424C138.604 53.9424 138.584 53.9505 138.57 53.9649C138.556 53.9793 138.548 53.999 138.548 54.0194Z" fill="#E9E7EF"/>
<path id="Vector_70" d="M142.768 56.6917H145.013C145.017 56.6917 145.022 56.6926 145.026 56.6942C145.03 56.6959 145.033 56.6983 145.037 56.7013C145.039 56.7044 145.042 56.708 145.043 56.7119C145.045 56.7159 145.046 56.7202 145.046 56.7245V57.3623C145.046 57.371 145.043 57.3794 145.037 57.3856C145.03 57.3917 145.022 57.3951 145.013 57.3951H141.93C141.921 57.3951 141.913 57.3917 141.907 57.3856C141.901 57.3794 141.897 57.371 141.897 57.3623V53.2743C141.897 53.2656 141.901 53.2572 141.907 53.251C141.913 53.2449 141.921 53.2415 141.93 53.2415H144.93C144.938 53.2415 144.946 53.2449 144.953 53.251C144.959 53.2572 144.962 53.2656 144.962 53.2743V53.9121C144.962 53.9208 144.959 53.9292 144.953 53.9353C144.946 53.9414 144.938 53.9449 144.93 53.9449H142.768C142.759 53.9449 142.751 53.9484 142.744 53.9545C142.738 53.9606 142.735 53.969 142.735 53.9777V54.8333C142.735 54.842 142.738 54.8503 142.744 54.8565C142.751 54.8626 142.759 54.8661 142.768 54.8661H144.778C144.787 54.8661 144.795 54.8696 144.802 54.8757C144.808 54.8818 144.811 54.8902 144.811 54.8989L144.812 55.5367C144.812 55.5454 144.808 55.5538 144.802 55.56C144.796 55.566 144.788 55.5695 144.779 55.5695H142.768C142.759 55.5695 142.751 55.573 142.744 55.5791C142.738 55.5853 142.735 55.5936 142.735 55.6024V56.6589C142.735 56.6676 142.738 56.676 142.744 56.6821C142.751 56.6882 142.759 56.6917 142.768 56.6917Z" fill="#E9E7EF"/>
</g>
</svg>
