<svg width="167" height="58" viewBox="0 0 167 58" fill="none" xmlns="http://www.w3.org/2000/svg">
<g id="Img - &#208;&#159;&#209;&#128;&#208;&#176;&#208;&#178;&#208;&#184;&#209;&#130;&#208;&#181;&#208;&#187;&#209;&#140;&#209;&#129;&#209;&#130;&#208;&#178;&#208;&#190; &#208;&#156;&#208;&#190;&#209;&#129;&#208;&#186;&#208;&#178;&#209;&#139; &#226;&#134;&#146; SVG">
<path id="Vector" d="M0.0650654 44.6755C0.0650654 49.8072 3.5298 53.0602 9.08475 53.0602H14.4527C17.5351 52.9464 20.5444 54.0524 22.8136 56.1424L23.2853 56.5735L23.757 56.1424C24.8712 55.0934 26.1889 54.2802 27.6284 53.7515C29.068 53.2229 30.5889 52.987 32.1261 53.0602H37.3638C42.9187 53.0602 46.3673 49.856 46.3673 44.6755V0.393799H0L0.0650654 44.6755ZM1.08984 1.43476H45.4726V44.7488C45.4726 49.3436 42.4796 52.0762 37.4614 52.0762H32.061C28.8403 51.9542 25.6927 53.0846 23.2772 55.2235C20.8616 53.0602 17.7059 51.9054 14.4608 52.003H9.09289C4.07472 52.003 1.09798 49.2786 1.09798 44.6837V1.43476H1.08984Z" fill="#E9E7EF"/>
<path id="Vector_2" d="M7.44185 28.972C7.64518 29.1509 7.87291 29.2973 8.10877 29.4274C8.34464 29.5575 8.34464 29.5738 8.22264 29.7934C8.22264 29.8503 8.22264 29.9073 8.22264 29.956C7.87291 30.5822 7.66144 31.2653 7.59638 31.981C7.53131 32.6886 7.62078 33.4123 7.85664 34.0874L8.20637 34.9006C8.32024 34.2989 8.42596 33.7945 8.53983 33.2253C8.59677 32.8837 8.72689 32.5666 8.90582 32.282C9.09289 31.9891 9.32875 31.7452 9.60528 31.55L10.1583 31.1027L10.3291 31.0213C10.5243 31.2653 10.6463 31.5582 10.6788 31.8753C10.744 32.5259 10.6138 33.1766 10.3128 33.7539C10.0933 34.1605 9.88181 34.5753 9.69474 35.0063C9.50768 35.4211 9.43448 35.8765 9.49142 36.3157C9.54834 36.763 9.71914 37.1858 9.99569 37.5355C10.2152 37.8202 10.4267 38.056 10.6626 38.3407C10.5731 38.4627 10.4756 38.5765 10.3779 38.6904C10.2966 38.788 10.2478 38.9018 10.2478 39.032C10.2478 39.1621 10.2966 39.2678 10.3779 39.3654C10.3779 39.4629 10.5487 39.5524 10.6301 39.65C10.7683 39.8045 10.8903 39.9835 10.9798 40.1705C11.1831 40.6585 11.232 41.1952 11.1343 41.7075C11.0936 41.8133 11.0936 41.9271 11.1343 42.0248C11.1668 42.1305 11.232 42.2199 11.3213 42.2769C11.7281 42.5127 12.2079 42.6021 12.6796 42.529C12.8992 42.529 12.9155 42.529 12.883 42.228C12.8504 41.9353 12.7447 41.6669 12.5657 41.4392L11.9151 40.5527C11.7362 40.3169 11.6305 40.0323 11.6142 39.7314C11.5979 39.4304 11.6711 39.1377 11.8175 38.8775C12.4681 39.2108 13.1676 39.4223 13.8915 39.5199V39.7233C13.8345 40.1705 13.8345 40.626 13.8915 41.0813C13.9403 41.4067 14.0704 41.7157 14.2738 41.984C14.477 42.2444 14.7454 42.4476 15.0464 42.5696C15.6889 42.7567 16.3802 42.6835 16.9739 42.3664C17.2993 42.2036 17.5677 41.9353 17.7303 41.6099C17.8929 41.2847 17.9418 40.9187 17.8767 40.5527C17.8767 40.3006 17.7628 40.0566 17.6897 39.7639C17.6246 39.4793 18.0719 39.6175 18.2916 39.5768C18.3972 39.5687 18.503 39.5849 18.5924 39.65C18.6819 39.7069 18.747 39.7964 18.7795 39.894L19.0804 40.6503C19.113 40.7072 19.1292 40.7642 19.1292 40.8292C19.1292 40.8943 19.113 40.9512 19.0804 41.0001C18.8771 41.3579 18.7144 41.7238 18.5273 42.0816C18.4786 42.163 18.4542 42.2687 18.4786 42.3581C18.4948 42.4557 18.5518 42.5452 18.6331 42.594C18.747 42.7079 18.869 42.7811 18.9666 42.8787C19.0642 42.9762 19.1536 43.2202 18.9666 43.2691C18.747 43.3178 18.5192 43.3178 18.2997 43.2691C18.1369 43.2121 17.9499 43.2283 17.7954 43.3097C17.6408 43.391 17.5188 43.5212 17.4619 43.6838C17.4457 43.7488 17.405 43.7977 17.3562 43.8383C17.3074 43.879 17.2504 43.9034 17.1935 43.9196C17.039 43.9603 16.8926 44.0335 16.7788 44.1474C16.6649 44.2612 16.5835 44.3995 16.5429 44.5621V44.7817L16.8926 44.6109C17.6083 44.3588 18.3809 44.3181 19.1211 44.5133C19.8856 44.6922 20.6095 45.0012 21.2601 45.4323C21.3007 45.4486 21.3496 45.4486 21.3902 45.4323C21.4472 45.2778 21.4472 45.107 21.3902 44.9606C21.3334 44.8142 21.2195 44.6922 21.0812 44.6109L20.7965 44.4807L19.4057 44.066C19.2756 44.066 19.1211 44.066 19.1048 43.7976C19.3813 43.7325 19.666 43.7325 19.9426 43.7976L22.0653 44.3181L22.716 44.5377V44.3344C22.6834 44.0091 22.594 43.7 22.4476 43.4154L22.0653 42.7567C22.0002 42.6266 21.9677 42.4801 21.9677 42.3256C21.9677 42.1711 22.0002 42.0329 22.0653 41.8946C22.6346 41.9271 23.204 42.041 23.7408 42.2525C24.3263 42.3989 24.8794 42.6021 25.4162 42.8055V42.0898L25.6846 41.9678C25.896 41.9028 26.0804 41.9597 26.2377 42.1386C26.8639 42.838 27.6772 43.3422 28.58 43.5943C28.7915 43.6594 29.0192 43.6594 29.2306 43.5943C29.1086 43.513 28.9866 43.4154 28.881 43.3097C28.7833 43.2121 28.6451 43.1227 28.6613 42.9518L29.6942 43.2772C29.9626 43.2772 30.044 43.2772 30.166 43.0576C30.2717 42.7892 30.3124 42.5046 30.2961 42.2199C30.2961 42.1224 30.2961 42.0248 30.2961 41.9271C30.5075 41.9678 30.7109 42.0573 30.8816 42.1955C31.1962 42.3853 31.4863 42.3528 31.7519 42.0979L31.8658 41.9759C32.6059 41.1464 33.102 40.138 33.3054 39.0482C33.346 38.8856 33.3948 38.7311 33.4599 38.5765C33.712 38.5765 33.9479 38.6904 34.1268 38.5765C34.3139 38.4627 33.8097 38.3407 33.8747 38.0967C34.2163 38.1211 34.566 38.0641 34.8751 37.9259L34.7205 37.812C34.2651 37.5599 33.8909 37.194 33.6307 36.7386L32.8093 35.2016C32.5896 34.7949 32.4433 34.7786 32.0935 35.0145H31.9796L31.4754 34.1605C31.3696 33.9573 31.3046 33.7295 31.2884 33.5018C31.2884 33.3148 31.2151 33.144 31.1013 33.0057C31.0036 32.8187 30.8816 32.8187 30.7027 33.0057L30.4669 33.1358V32.3958H30.0359C29.9707 32.4039 29.8976 32.3957 29.8406 32.3714C29.7837 32.3389 29.7349 32.2901 29.7024 32.2331C29.5722 32.0135 29.434 31.794 29.3201 31.5744C29.2062 31.3548 29.3201 31.3061 29.4746 31.2735H29.6047C30.776 31.2735 31.9228 30.9726 32.9475 30.4196C33.4029 30.1838 33.8909 30.0048 34.3871 29.8665C34.4847 29.834 34.5823 29.8259 34.688 29.8422C34.7937 29.8584 34.8832 29.9073 34.9564 29.9723L35.9731 31.0864C36.0625 31.1678 36.1194 31.2734 36.1601 31.3954C36.2008 31.5174 36.2008 31.6394 36.1763 31.7533C36.1601 31.8509 36.1763 31.9485 36.2089 32.0461C36.2414 32.1355 36.2983 32.2087 36.3716 32.282C36.5261 32.469 36.6562 32.6805 36.7863 32.8675C36.8433 32.9976 36.8758 33.1358 36.8758 33.2741C36.8758 33.4123 36.8433 33.5424 36.7863 33.6726C36.7863 33.8434 36.6887 34.006 36.5993 34.1931C36.5667 34.2419 36.5505 34.2906 36.5423 34.3557C36.5342 34.4126 36.5423 34.4696 36.5423 34.5265C36.5586 34.5835 36.5831 34.6322 36.6156 34.6811C36.6481 34.7217 36.6968 34.7623 36.7457 34.7949C37.0303 35.0063 37.3231 35.1934 37.6322 35.3642C37.8681 35.4943 37.982 35.3642 38.0145 35.1446C38.0877 34.6973 38.0145 34.2338 37.7948 33.8353C37.494 33.3311 37.3313 32.7536 37.3231 32.16C37.3068 31.6069 37.0792 31.0946 36.6887 30.7123C36.4041 30.387 36.1438 30.0374 35.9161 29.6714C35.7616 29.4355 35.6314 29.1753 35.5176 28.9151C35.4444 28.7117 35.3062 28.5329 35.1191 28.419C34.932 28.297 34.7205 28.2319 34.5009 28.2481C34.265 28.2645 34.0292 28.2645 33.8015 28.2481H33.5982C33.9967 28.0693 34.3464 27.7928 34.5985 27.4431C34.932 27.0608 35.2817 26.6867 35.6558 26.3045C36.0218 25.9141 35.8917 26.1175 36.0707 26.3045L36.2414 26.4752C36.5098 26.7762 36.7782 27.0771 37.0628 27.3617C37.1523 27.4349 37.2175 27.5244 37.2662 27.6302C37.3068 27.7358 37.3231 27.8497 37.315 27.9635C37.2906 28.0774 37.315 28.1994 37.3801 28.2889C37.4451 28.3865 37.5346 28.4515 37.6485 28.484C37.7461 28.5166 37.8274 28.5816 37.8843 28.6711C37.9576 28.7525 38.0063 28.8418 38.0389 28.9395C38.0714 29.0371 38.0877 29.1428 38.0714 29.2403C38.0632 29.3461 38.0307 29.4437 37.982 29.5332C37.9331 29.6225 37.86 29.6958 37.7786 29.7608V29.8584C37.6891 29.9479 37.6241 30.0618 37.6078 30.1837C37.5916 30.3139 37.6078 30.4359 37.681 30.5416C37.7542 30.7123 37.86 30.8668 37.9982 30.9888C38.1365 31.119 38.291 31.2084 38.47 31.2653C38.7709 31.3629 38.9172 31.2653 38.9579 30.997C38.9905 30.7449 38.9905 30.4846 38.9579 30.2325C38.7952 29.647 38.7221 29.0289 38.7546 28.419C38.7709 28.2481 38.7546 28.0855 38.6976 27.9391C38.6407 27.7846 38.5431 27.6464 38.4211 27.5325C38.0389 27.1341 37.681 26.7437 37.3313 26.3289C36.9408 25.9466 36.6643 25.4668 36.5261 24.9382C36.5017 24.857 36.4692 24.7675 36.4285 24.6861C36.4041 24.6211 36.3634 24.5641 36.3146 24.5154C36.2658 24.4665 36.2008 24.434 36.1357 24.4177C36.0707 24.3934 35.9974 24.3934 35.9323 24.4096C35.8673 24.4177 35.8022 24.4502 35.7453 24.491C35.5419 24.6373 35.3549 24.8 35.1923 24.9871C34.9402 25.3123 34.6148 25.5725 34.2407 25.7434C34.0048 25.8409 33.8747 25.7434 33.7689 25.5807C33.712 25.4506 33.6795 25.3204 33.655 25.1822C33.5494 24.5316 33.2891 23.9135 32.8987 23.3849C32.7279 23.1491 32.5327 22.9295 32.3781 22.6936C32.0366 22.3277 31.7519 21.9129 31.5405 21.4575C31.207 20.4816 30.8573 19.5301 30.5075 18.5542C30.5075 18.3671 30.3937 18.1882 30.3042 17.928H30.9224C31.3453 17.9524 31.7519 18.0906 32.0935 18.3346C32.2805 18.4647 32.427 18.6355 32.5978 18.7493C32.736 18.847 32.8905 18.9038 33.0533 18.9364C33.102 18.9527 33.1589 18.9446 33.1996 18.9364C33.2484 18.9202 33.289 18.8876 33.3135 18.8388V18.4891C33.4193 18.5135 33.5168 18.5623 33.5982 18.6192C33.6307 18.6599 33.6714 18.6925 33.712 18.7087C33.7608 18.7331 33.8097 18.7412 33.8584 18.7412C33.9072 18.7412 33.956 18.7331 34.0048 18.7087C34.0537 18.6925 34.0862 18.6599 34.1187 18.6192C34.1919 18.5054 34.2325 18.3834 34.2325 18.2533V17.5945C34.2325 17.4888 34.2082 17.3912 34.1512 17.3018C34.0943 17.2123 34.0129 17.1472 33.9153 17.1066C33.777 17.0334 33.655 16.9277 33.5657 16.7976L32.2969 14.9515C32.2155 14.8457 32.1586 14.7156 32.126 14.5855C32.0691 14.3252 31.9471 14.0894 31.7763 13.8779V13.7478H32.1586C32.0285 13.4957 31.939 13.2518 31.8089 13.0484C31.7031 12.8858 31.5567 12.7557 31.3778 12.6906C31.1582 12.6337 30.9305 12.6337 30.7109 12.6906C30.5239 12.7394 30.3205 12.7312 30.1334 12.6743C29.9464 12.6092 29.7837 12.5117 29.6536 12.3571C29.4746 12.1945 29.2876 12.0563 29.0842 11.9343H28.881C28.8158 11.9343 28.881 12.1701 28.881 12.3409L27.7097 12.2108C27.7097 12.5117 27.9944 12.6092 28.0432 12.8613C27.9456 12.8777 27.8561 12.8777 27.7586 12.8613C27.2706 12.8532 26.7826 12.8939 26.3027 12.9997C26.2295 13.0241 26.1482 13.0241 26.0668 12.9997C25.9529 12.9102 25.8228 12.8532 25.6927 12.8288C25.5544 12.8045 25.4162 12.8207 25.286 12.8532C24.8713 12.9671 24.4728 13.1379 24.1149 13.3738L23.8139 13.5039C23.7895 13.3006 23.7895 13.0972 23.8139 12.9021C24.0498 12.1783 24.0498 11.4057 23.8139 10.6737C23.7164 10.3566 23.5781 10.0556 23.4643 9.71409V9.6165C23.6025 9.49451 23.7164 9.34813 23.7895 9.17734C23.8709 9.00656 23.9115 8.82764 23.9115 8.6406C23.9115 8.43727 23.8465 8.23396 23.7408 8.05505C23.7408 7.90053 23.4724 8.05505 23.3259 8.05505C23.1714 8.03878 23.025 7.98999 22.8949 7.91679C22.716 7.80294 22.5045 7.74602 22.293 7.74602C22.0816 7.74602 21.8701 7.81107 21.6912 7.91679C21.1706 8.20956 20.6013 8.39661 20.0157 8.48607C19.6091 8.59993 19.1699 8.59993 18.7632 8.48607L18.3972 8.38849C18.5273 8.85204 18.8446 9.25866 19.2675 9.49451C19.1373 9.73036 18.9178 9.49451 18.7958 9.6409C18.9584 9.80355 19.1617 9.93365 19.3732 10.0069C19.5928 10.0881 19.8206 10.1207 20.0482 10.1126C20.154 10.0881 20.2597 10.0881 20.3655 10.1126C20.4956 10.1695 20.6339 10.1939 20.7721 10.1939C20.9104 10.1939 21.0567 10.1695 21.1787 10.1126C21.2764 10.1126 21.3659 10.0313 21.4472 10.1126C21.2276 10.2915 21.0567 10.5274 20.943 10.7876C20.8291 11.0559 20.7884 11.3406 20.8128 11.6172C20.8291 11.9261 20.764 12.227 20.6257 12.5036C20.6257 12.6175 20.6257 12.7557 20.5281 12.8696C20.5281 12.9508 20.5281 13.0403 20.5281 13.1216C20.276 13.1216 20.0565 12.9915 19.845 12.9508C19.6905 12.9102 19.5277 12.9102 19.3732 12.9508C19.3001 12.9915 19.2106 13.0159 19.1211 13.0159C19.0316 13.0159 18.9503 12.9915 18.869 12.9508C18.7063 12.8288 18.5111 12.7638 18.3078 12.7638C18.1044 12.7638 17.9093 12.8288 17.7466 12.9508L17.0309 13.4144L16.494 13.7966C16.3802 13.7966 16.2257 13.7966 16.1607 13.7153L15.7052 12.6743C15.575 12.3897 15.4693 12.0563 15.0545 12.0725C14.6398 12.0888 14.8186 11.9586 14.8186 11.8042V11.5358C14.6234 11.3732 14.5096 11.1373 14.4851 10.8771C14.4851 10.7632 14.3713 10.6737 14.2493 10.7307V11.0722C14.3063 11.2512 14.3713 11.4301 14.4526 11.609C14.6071 11.609 14.6234 11.796 14.4526 11.8774C14.3306 12.0075 14.1924 12.1295 14.0379 12.2189C13.9971 12.2434 13.9484 12.2434 13.8996 12.2434C13.8508 12.2434 13.802 12.2434 13.7614 12.2189C13.5743 11.9994 13.2896 11.8123 13.4766 11.4463C13.6637 11.0803 13.5743 10.9258 13.8915 10.8038L13.5905 10.4054C13.1757 9.83607 12.7691 9.25054 12.338 8.73005C12.2486 8.6162 12.1428 8.51047 12.0208 8.42915C11.9557 8.38035 11.8826 8.34782 11.8012 8.34782C11.7199 8.34782 11.6467 8.37222 11.5816 8.42915C11.5247 8.48607 11.5003 8.55927 11.5003 8.63246C11.5003 8.71378 11.5328 8.77885 11.5816 8.83577C11.5816 8.95777 11.7117 9.03909 11.7687 9.14482L13.192 11.1698C13.192 11.2674 13.3465 11.3894 13.192 11.5033C13.1432 11.5683 13.1106 11.6497 13.1106 11.7391C13.1106 11.8285 13.1351 11.9018 13.192 11.9749C13.2896 12.1214 13.4279 12.2596 13.5255 12.406C13.6475 12.5361 13.7288 12.6987 13.7776 12.8696C13.8508 13.2192 13.9809 13.5445 14.1761 13.8454L14.4608 14.3659C14.5421 14.496 14.5746 14.6425 14.5503 14.797C14.5259 14.9433 14.4445 15.0816 14.3306 15.1711C14.1761 15.3012 14.0298 15.4394 13.8996 15.5858C13.7206 15.8216 13.5499 16.0819 13.3954 16.3421C13.3303 16.4235 13.2977 16.521 13.2977 16.6186C13.2977 16.7162 13.3303 16.8138 13.3954 16.887C13.6149 16.8545 13.8345 16.7895 14.046 16.7243C14.3958 16.6105 14.6804 16.8545 14.6153 17.2611C14.6071 17.3749 14.5665 17.4807 14.4933 17.5702C14.4201 17.6596 14.3225 17.7247 14.2168 17.7572L13.867 17.871L12.6309 18.3427C12.5007 18.4078 12.3869 18.4891 12.2974 18.603C12.2079 18.7168 12.1428 18.8388 12.1021 18.9771C12.0696 19.1234 12.0615 19.2698 12.094 19.4081C12.1185 19.5545 12.1835 19.6846 12.2648 19.7984C12.5495 20.1725 12.5007 20.3515 12.151 20.6361L11.6467 21.0102C11.541 21.059 11.4596 21.1484 11.4108 21.2542C11.3621 21.3599 11.3457 21.4738 11.3621 21.5958C11.3621 21.6608 11.3621 21.734 11.3295 21.799C11.297 21.8641 11.2563 21.9129 11.1993 21.9454C10.988 22.1488 10.8333 22.3927 10.744 22.6692C10.7032 22.7262 10.687 22.7912 10.687 22.8645C10.687 22.9295 10.7113 22.9946 10.744 23.0596C10.8415 23.1572 10.9472 23.0596 11.0611 23.0596C11.297 22.9457 11.5328 22.8563 11.7768 22.7912C12.3869 22.6448 13.005 22.5716 13.6312 22.588C14.1436 22.588 14.656 22.7262 15.087 23.0108L16.0224 23.7915C16.1525 23.9135 16.2908 24.0193 16.4372 24.1169C16.6079 24.1169 16.8194 24.1169 16.9739 24.2632C17.1041 24.4015 17.2098 24.556 17.2912 24.7268C17.3318 24.7918 17.3562 24.8651 17.3562 24.9463C17.3562 25.0277 17.3318 25.1009 17.2912 25.1659C17.2912 25.3367 17.1041 25.2961 16.9902 25.3367C16.3152 25.3937 15.6564 25.5238 15.0139 25.7353C14.965 25.7596 14.9081 25.7759 14.8511 25.7759C14.7943 25.7759 14.7373 25.7596 14.6885 25.7353L14.168 25.353C13.4929 24.8325 12.6877 24.5235 11.8419 24.4502C11.541 24.4259 11.232 24.4584 10.9391 24.5641C10.6463 24.6617 10.3861 24.8243 10.1665 25.0439C9.62154 25.5644 9.18235 26.1906 8.88142 26.882C8.71876 27.2072 8.60489 27.5569 8.54796 27.9229C8.54796 28.297 8.3609 28.663 8.2633 29.0208C8.1657 29.3704 8.13317 29.2729 7.97864 29.1672C7.57198 28.9476 7.21412 28.6548 6.92133 28.297C6.60414 27.7765 6.58786 27.5082 7.09212 27.0039C7.18158 26.9226 7.27919 26.8738 7.39305 26.8331C7.47439 27.0527 7.39305 27.2723 7.56385 27.4187C7.70212 27.5569 7.82411 27.7114 7.92984 27.8659C8.02743 27.7846 8.10064 27.687 8.14131 27.5732C8.1901 27.4593 8.20637 27.3373 8.19824 27.2153C8.1901 27.0933 8.14944 26.9795 8.07623 26.8738C8.01117 26.7681 7.92171 26.6867 7.80784 26.6217C7.71838 26.5972 7.61265 26.5972 7.52318 26.6217C7.26292 26.6136 7.00266 26.6949 6.79933 26.8575C6.596 27.0202 6.4496 27.2561 6.40894 27.5163C6.4252 27.8253 6.53094 28.1262 6.718 28.3865C6.89693 28.6386 7.14906 28.8418 7.43371 28.9557L7.44185 28.972ZM13.2977 10.5355L11.9801 8.60806C11.9801 8.49421 11.7443 8.32342 11.9801 8.22584C12.216 8.12824 12.1997 8.33969 12.2648 8.44541L13.5499 10.2427C13.6149 10.3566 13.68 10.4704 13.7369 10.5924C13.4523 10.6737 13.371 10.625 13.3059 10.5274V10.5436L13.2977 10.5355ZM11.1262 37.5355C10.866 37.2022 10.6463 36.8443 10.4592 36.4621L10.6951 36.6654L11.0448 37.072C11.3132 37.1858 11.3295 37.1858 11.1262 37.5193V37.5355ZM11.9476 41.5449L11.663 41.6263C11.5816 41.8133 11.663 41.8946 11.7768 42.0329C11.8907 42.163 11.7768 42.163 11.7768 42.2525C11.6955 42.2525 11.6061 42.2525 11.5247 42.2525C11.2563 42.0654 11.1912 41.8946 11.3051 41.6099C11.3457 41.5205 11.3702 41.4229 11.3702 41.3253C11.3702 41.2277 11.3457 41.1302 11.3051 41.0407C11.2156 40.7967 11.2156 40.5202 11.3051 40.2844C11.6142 40.6341 11.8337 41.0651 11.9395 41.5205V41.5368L11.9476 41.5449ZM11.4596 36.698C11.3213 36.6572 11.1912 36.5677 11.0855 36.4621C10.9798 36.3645 10.8985 36.2344 10.8415 36.0961V35.7708C11.0123 35.4048 11.1912 35.0551 11.3457 34.6811C11.6874 33.7458 11.7931 32.7455 11.663 31.7614C11.5735 31.2084 11.3132 30.6798 10.9228 30.2732C10.8741 30.2325 10.8333 30.1675 10.8171 30.1024C10.8008 30.0374 10.8008 29.9723 10.8171 29.8991C11.0205 29.2322 11.1993 28.5572 11.4027 27.8904C11.5085 27.4919 11.7199 27.1178 12.0127 26.825C12.3055 26.5322 12.6715 26.3207 13.0781 26.2231C13.4523 26.093 13.8426 26.0524 14.233 26.093H14.4526C14.4526 26.1744 14.4526 26.2639 14.3225 26.3289C13.8426 27.0608 13.5336 27.8985 13.436 28.7768C13.3303 29.525 13.2896 30.2814 13.3221 31.0458V31.9323C13.3628 32.3145 13.3628 32.6967 13.3221 33.0789C13.2977 33.2822 13.2245 33.4774 13.1189 33.6482C13.0131 33.8271 12.8667 33.9735 12.704 34.0955C12.5089 34.2581 12.3055 34.4045 12.0859 34.5265C11.9801 34.5916 11.8907 34.6811 11.8175 34.7867C11.7443 34.8843 11.7036 35.0063 11.6792 35.1283C11.6792 35.7139 11.5654 36.153 11.4596 36.6816V36.698ZM13.6475 39.0076C13.1106 38.8775 12.5901 38.6579 12.1266 38.357C11.9395 38.2431 11.9395 38.1943 12.1266 37.869L14.168 38.5765C14.1191 38.8775 13.9321 39.0645 13.6475 38.9913V39.0076ZM22.9681 30.7123L23.8871 31.8672C24.0173 32.0298 24.1311 32.2006 24.2369 32.3714V32.656C24.2369 32.7048 24.0335 32.8025 23.9522 32.7699C23.7 32.7455 23.4561 32.6642 23.2446 32.5259C23.0331 32.3958 22.8461 32.2169 22.716 32.0054C22.6184 31.8184 22.5126 31.6964 22.2605 31.7695C22.2036 31.7859 22.1385 31.7859 22.0735 31.7695L21.6424 31.3873C21.6424 31.3873 21.5855 31.2898 21.5855 31.2409C21.5855 31.1922 21.6099 31.1271 21.6424 31.0946C21.7562 30.9319 21.8457 30.7693 21.927 30.5904C22.1141 30.1919 22.2768 29.7771 22.415 29.3542C22.6021 28.6305 22.7485 27.8904 22.9193 27.1096L24.0579 26.7843C24.066 26.9145 24.066 27.0527 24.0579 27.1909L23.2853 29.5006L22.9844 30.3707C22.96 30.4196 22.9436 30.4765 22.9355 30.5416C22.9355 30.5985 22.9355 30.6555 22.9681 30.7123ZM24.1068 29.7202L24.7737 27.5244L24.9933 27.6952C25.2128 27.9635 25.4649 28.2156 25.6764 28.484C25.774 28.6305 25.8228 28.8093 25.8066 28.9801C25.7903 29.1591 25.7089 29.3217 25.5788 29.4437C25.1153 29.647 24.611 29.7364 24.1068 29.712V29.7283V29.7202ZM21.3984 30.0943C20.8128 30.1919 20.2435 30.3301 19.723 30.444C19.2024 30.5578 18.9666 30.5253 18.8852 29.8584V29.2241L19.235 26.9063C19.2675 26.6705 19.3245 26.4346 19.4057 26.2069C19.4057 25.9874 19.5033 25.9548 19.7392 25.9874L22.1955 26.3045H22.415C22.472 26.3207 22.5208 26.3615 22.5614 26.4184C22.594 26.4671 22.6102 26.5322 22.6021 26.5891C22.4882 27.5894 22.3011 28.5816 22.049 29.5575C22.049 29.6389 22.0246 29.712 21.984 29.7771C21.9434 29.8503 21.8945 29.9073 21.8376 29.956C21.7725 30.0048 21.7075 30.0455 21.6342 30.0618C21.5611 30.0861 21.4797 30.0861 21.3984 30.078V30.0943ZM22.9519 25.8654C22.0979 25.662 21.2682 25.3855 20.4793 25.0114C20.3492 25.0114 20.1621 24.8732 20.1621 24.6861C20.1621 24.4991 20.398 24.4502 20.5281 24.4502C20.886 24.4259 21.252 24.4259 21.618 24.4502C21.6994 24.4584 21.7725 24.491 21.8376 24.5479C22.3337 24.9057 22.7566 25.353 23.1064 25.8573C23.1064 25.8573 22.9763 25.9223 22.9519 25.9223V25.8573V25.8654ZM20.8128 23.2873L19.5766 23.9216C19.357 24.0193 19.1292 24.0925 18.8933 24.1413C18.747 24.1738 18.6006 24.1656 18.4542 24.1169C18.3159 24.0599 18.1939 23.9705 18.1044 23.8485C18.0719 23.824 18.0476 23.7997 18.0312 23.7672C18.0149 23.7346 18.0068 23.702 18.0068 23.6614C18.0068 23.6208 18.0149 23.5801 18.0312 23.5475C18.0476 23.515 18.0719 23.4825 18.1044 23.4663C18.2589 23.3198 18.4379 23.2142 18.6412 23.1572C18.8446 23.1003 19.0561 23.0922 19.2593 23.1328C19.4465 23.1978 19.6416 23.2142 19.8287 23.1816C20.0238 23.1491 20.2028 23.0758 20.3573 22.9621L20.5281 22.8645C20.8779 22.6286 20.9266 22.6286 21.1462 23.0841C21.0405 23.1491 20.9266 23.2142 20.8128 23.2711V23.2873ZM18.869 34.0466C19.1536 33.6889 19.3407 33.6563 19.7067 33.9084L19.8368 34.0141V34.0955C19.4057 34.6647 18.6982 34.8925 18.1614 35.4048C18.0068 35.1202 18.0312 34.9982 18.1614 34.8193C18.2916 34.6322 18.6657 34.3232 18.9503 34.0385L18.869 34.0549V34.0466ZM17.9174 34.7461C17.7628 34.9494 17.5839 35.1039 17.4132 35.2991C17.3074 35.3804 17.2342 35.5024 17.1854 35.6244C17.1366 35.7545 17.1203 35.8846 17.1447 36.0229C17.1692 36.1611 17.2179 36.275 17.2993 36.3889C17.3806 36.4946 17.4863 36.576 17.6083 36.6247C17.8604 36.7548 18.0557 36.9663 18.1614 37.2266C18.1777 37.3078 18.1777 37.3811 18.1614 37.4624H17.039C16.2663 37.4379 15.5099 37.6494 14.8674 38.0641C14.778 38.0968 14.6723 38.0968 14.5828 38.0641C14.0054 37.9991 13.436 37.8283 12.9074 37.5762L12.338 37.3078C12.4194 36.8768 12.6227 36.4865 12.9236 36.1693C13.3465 35.787 13.8834 35.5349 14.4445 35.4455C14.7861 35.3804 15.1195 35.2828 15.4449 35.1608C16.2908 34.8681 17.0959 34.5021 17.8686 34.0549H17.9987C18.2346 34.307 18.0476 34.5184 17.9011 34.7217V34.738L17.9174 34.7461ZM16.4778 41.2196C16.3152 41.2847 16.1444 41.2847 15.9817 41.2196C15.819 41.1627 15.6808 41.057 15.5913 40.9106C15.575 40.87 15.5669 40.8292 15.5669 40.7886C15.5669 40.748 15.575 40.6991 15.5913 40.6585C15.8759 40.26 16.2989 39.9998 16.7788 39.9021C16.8438 40.0079 16.8926 40.1217 16.9089 40.2437C16.9333 40.3657 16.9252 40.4877 16.9008 40.6097C16.8763 40.7317 16.8194 40.8455 16.7462 40.9431C16.673 41.0407 16.5835 41.1302 16.4778 41.1952V41.2196ZM21.9108 43.6105C21.6342 43.7082 21.3415 43.7407 21.0567 43.7082C20.764 43.6757 20.4875 43.578 20.2435 43.4236C19.9832 43.2934 19.7555 43.0901 19.5847 42.8542C19.4138 42.6185 19.3001 42.3419 19.2512 42.0573C19.6578 42.0654 20.0482 42.1874 20.3899 42.407C20.7721 42.6753 21.1056 42.9762 21.4635 43.2609C21.6261 43.3584 21.7725 43.4723 21.9189 43.5943V43.6105H21.9108ZM24.5053 41.3823H24.2857C23.8953 41.2522 23.4805 41.1952 23.0656 41.1952H21.3902C20.9592 41.2196 20.52 41.1708 20.1052 41.0488C19.7311 40.9025 19.4057 40.6503 19.1862 40.3088C19.0886 40.138 19.0397 39.9428 19.0397 39.7477C19.0397 39.5524 19.0886 39.3573 19.1862 39.1864C19.2837 38.8612 19.1862 38.7636 18.9341 38.6985C18.6168 38.6172 18.2916 38.5684 17.9662 38.5521C17.3806 38.4952 16.7869 38.544 16.2094 38.6822C15.6726 38.8123 15.2009 39.1296 14.8674 39.5687C14.6316 39.9184 14.4933 40.3169 14.4526 40.7317C14.412 41.1464 14.4851 41.5612 14.6479 41.9515V42.1549C14.6479 42.0735 14.4608 42.0004 14.3958 41.919C14.1924 41.6425 14.046 41.3253 13.989 40.9838C13.924 40.6422 13.9403 40.2925 14.0298 39.959C14.1029 39.6338 14.233 39.3166 14.412 39.0238C14.7618 38.4871 15.2904 38.1049 15.9004 37.9259C16.551 37.6657 17.2586 37.6007 17.9418 37.7389L18.9422 37.9422C19.4952 38.0641 20.0646 38.0641 20.6176 37.9422H20.7721C20.9266 37.8771 21.1056 37.869 21.2682 37.9259C21.4309 37.9748 21.5692 38.0886 21.6586 38.235C21.9434 38.5684 22.3093 38.8368 22.6265 39.1539L22.8135 39.3166H22.415V39.5199C22.781 40.0485 23.2934 40.4632 23.8871 40.7072L24.188 40.8537C24.5703 41.0001 24.5703 41.0082 24.5053 41.3579V41.3823ZM28.0838 40.5121C27.8073 41.0651 27.3926 41.5368 26.8802 41.8865H26.7093C26.9289 41.3904 27.1242 40.9675 27.3112 40.5284C27.1242 40.6503 26.9371 40.7642 26.7419 40.8618C26.5386 40.9675 26.3271 41.0407 26.1075 41.0813C26.4003 40.6341 26.5954 40.1299 26.6931 39.6013C26.4247 39.7395 26.1482 39.8534 25.8554 39.9347C25.408 39.9998 24.9525 40.0404 24.4971 40.0566C24.5459 39.9916 24.611 39.9428 24.6842 39.9021L25.6358 39.4712L25.8879 39.3409L25.1153 39.2434C24.8875 39.2272 24.6598 39.1783 24.4483 39.1133C24.7493 38.9994 25.0339 38.8612 25.3185 38.7066C25.5869 38.5602 25.8228 38.3407 26.14 38.1211H25.9042C25.0095 38.1861 24.1068 38.0805 23.2446 37.812C23.1145 37.7714 23.0006 37.6982 22.8949 37.6088C23.757 37.6169 24.611 37.4624 25.408 37.1452C24.9607 37.1696 24.5134 37.1289 24.0823 37.0151C23.6838 36.8931 23.2609 36.763 22.8461 36.5922C22.9274 36.5922 23.0006 36.5922 23.082 36.5922C23.8465 36.6329 24.6029 36.5515 25.3429 36.3401C25.7089 36.3401 26.0831 36.1774 26.4328 36.0554C27.1729 35.787 27.4902 36.4702 27.4007 36.9582C27.3193 37.4461 27.3031 37.8771 27.2298 38.3489C27.2136 38.479 27.2298 38.6091 27.2868 38.7311C27.3437 38.845 27.4332 38.9506 27.5471 39.0238C27.8398 39.1946 28.0595 39.4712 28.1652 39.7883C28.214 40.0241 28.1896 40.2762 28.0838 40.4959V40.5121ZM27.8968 36.4702C27.9781 36.153 28.0513 35.8278 28.1327 35.4943C28.1977 35.4943 28.2547 35.4943 28.3116 35.5187C28.3685 35.5431 28.4255 35.5757 28.4661 35.6163C28.5068 35.6569 28.5475 35.7139 28.5718 35.7627C28.5962 35.8196 28.6043 35.8765 28.6043 35.9416C28.6288 36.0961 28.6288 36.2588 28.6043 36.4132C28.4742 36.763 28.3197 37.1371 28.1489 37.4868C28.1489 37.4868 28.0513 37.6007 27.9618 37.7226C27.8398 37.3078 27.8155 36.8687 27.8968 36.454V36.4702ZM32.0285 39.8208C31.8576 40.1624 31.6218 40.4632 31.3371 40.7072C31.0525 40.9512 30.719 41.1383 30.353 41.2522L29.8325 41.4392C29.7024 41.8539 29.5641 42.2769 29.434 42.7322C29.0924 42.651 28.7752 42.472 28.5312 42.2118C28.4823 42.163 28.4417 42.106 28.4173 42.041C28.393 41.9759 28.3767 41.9109 28.3767 41.8458C28.3767 41.7808 28.393 41.7157 28.4173 41.6507C28.4417 41.5856 28.4823 41.5287 28.5312 41.4798C28.7752 41.2114 29.0598 40.9838 29.3689 40.7886C30.0196 40.4226 30.6946 40.1055 31.3615 39.7639L31.9309 39.4793C32.1504 39.6257 32.0773 39.7314 32.0285 39.8289V39.8127V39.8208ZM31.1907 33.9003C31.5241 34.3882 31.5893 34.9738 31.9309 35.4618C32.0448 35.3967 32.1586 35.3235 32.2643 35.2422C32.3131 35.2016 32.37 35.1771 32.4351 35.1771C32.5002 35.1771 32.5571 35.2016 32.6059 35.2422C32.7035 35.3398 32.6059 35.4292 32.6059 35.5268C32.6059 35.6244 32.5245 36.0961 32.9394 36.1286C33.0125 36.1286 33.0858 36.1449 33.1427 36.1855C33.1996 36.2262 33.2484 36.2913 33.2728 36.3645C33.3867 36.7142 33.5249 37.0557 33.655 37.4054L33.4029 37.5193V37.9829C33.289 38.1049 33.1834 37.9829 33.1183 37.9829L32.2318 37.1289C32.061 36.9418 31.9309 36.7223 31.76 36.5027L31.8739 36.332C32.0773 36.0635 32.0284 35.8765 31.7031 35.7302C31.6136 35.6976 31.5242 35.6407 31.4591 35.5675C31.394 35.4943 31.3453 35.4048 31.3127 35.3154C31.3127 35.0633 31.1256 34.8112 31.0606 34.5427C31.0118 34.4371 30.9874 34.3232 31.0118 34.2012C31.0362 34.0874 31.0931 33.9816 31.1745 33.9003V33.884L31.1907 33.9003ZM30.3855 34.5591C30.4831 34.616 30.5645 34.6973 30.6214 34.7949C30.6784 34.9006 30.7027 35.0145 30.7027 35.1283L30.4669 35.0145C30.3937 34.9494 30.2961 34.9168 30.1985 34.9168C30.1009 34.9168 30.0032 34.9494 29.9301 35.0145C29.9057 35.0307 29.8895 35.0552 29.8812 35.0796C29.8731 35.1039 29.865 35.1283 29.865 35.1608C29.865 35.1934 29.865 35.2178 29.8812 35.2422C29.8895 35.2666 29.9057 35.2909 29.9301 35.3072C30.0359 35.5105 30.1579 35.7058 30.2961 35.8765C30.6702 36.2913 30.9305 36.7792 31.0687 37.3242C31.085 37.5437 31.085 37.7552 31.0687 37.9748C31.0606 38.113 31.0931 38.2512 31.1745 38.3651C31.2476 38.479 31.3615 38.5684 31.4916 38.6172L31.6218 38.7311C31.3615 39.1052 31.0687 39.4629 30.7515 39.7883C30.5889 39.9265 30.3937 40.0079 30.1822 40.0404C29.9707 40.0648 29.7592 40.0404 29.5641 39.9428C29.3689 39.8615 29.2062 39.715 29.0924 39.5362C28.9785 39.3654 28.9135 39.1621 28.9053 38.9425V38.056C28.9053 37.3323 29.0355 36.6247 29.1249 35.9253C29.1412 35.8114 29.1412 35.7058 29.1249 35.5919C29.1249 35.4862 29.1086 35.3804 29.0761 35.2828C29.0355 35.1853 28.9785 35.0958 28.8972 35.0145C28.8158 34.9413 28.7263 34.8843 28.6206 34.8518C28.515 34.8193 28.4092 34.8112 28.3035 34.8193C27.9212 34.8518 27.5389 34.9168 27.1648 35.0226C26.9127 35.0226 26.6768 35.1527 26.4491 35.2259C26.3271 35.2666 26.1969 35.2666 26.0831 35.2259L24.9607 34.5184C24.5297 34.25 24.0742 33.9979 23.6188 33.7458C23.7164 34.0304 23.7814 34.3232 23.822 34.616C23.8058 34.925 23.7408 35.2178 23.635 35.5024L23.7489 35.6163C23.7489 35.6163 23.879 35.8196 23.8628 35.8359C23.7895 35.9172 23.7 35.9741 23.5944 36.0066C23.3423 36.0391 23.0901 36.0391 22.838 36.0066C22.2199 35.9009 21.618 35.7708 20.9999 35.6488C20.7152 35.5919 20.4224 35.5512 20.1296 35.5349C20.6582 36.0229 21.1137 36.5922 21.4879 37.2103C20.9917 37.2509 20.5037 37.3567 20.032 37.5274C19.845 37.5274 19.7311 37.5274 19.6335 37.3973C19.5358 37.2672 19.3651 36.9418 19.2187 36.7386C19.1211 36.576 19.0804 36.3807 19.1048 36.1937C19.1292 36.0066 19.2268 35.8278 19.3651 35.6976C19.479 35.5512 19.6091 35.4211 19.7636 35.3154C20.2191 34.9576 20.6176 34.5265 20.9348 34.0466C20.9999 33.9248 21.0893 33.8109 21.1869 33.7052C21.252 33.6319 21.3415 33.5832 21.4391 33.5588L24.066 33.1602C25.3429 32.9407 26.5873 32.5585 27.7667 32.0217C27.8236 31.9891 27.8968 31.981 27.9618 31.9973C28.0269 32.0135 28.0838 32.0624 28.1163 32.1193C28.2953 32.3632 28.4905 32.5991 28.702 32.8187C28.7671 32.8837 28.7996 32.9651 28.7996 33.0546C28.7996 33.1358 28.7671 33.2253 28.702 33.2904C28.599 33.491 28.6504 33.64 28.8565 33.7377L30.3774 34.5591H30.3855ZM33.2973 26.7762C33.346 26.6136 33.4274 26.4671 33.5412 26.3451C33.655 26.2231 33.7934 26.1256 33.9479 26.0768C34.2977 25.9223 34.6473 25.7353 34.9889 25.5725C35.3224 25.4099 35.2248 25.4749 35.5257 25.5725C35.3468 25.8247 35.1597 26.0605 34.9564 26.2964C34.7124 26.5729 34.444 26.8331 34.1512 27.069C33.9885 27.1747 33.8097 27.2316 33.6144 27.2316C33.5575 27.2316 33.5087 27.2316 33.4599 27.2072C33.411 27.1828 33.3704 27.1422 33.3379 27.1015C33.3054 27.0608 33.289 27.0039 33.2809 26.9551C33.2809 26.8982 33.2809 26.8412 33.2973 26.7925V26.7762ZM26.2702 16.4885C26.3433 15.8623 26.5548 15.2523 26.8964 14.7237C27.238 14.187 27.7016 13.7478 28.2465 13.4225L28.6613 13.2599C28.7671 13.2192 28.8727 13.1867 28.9866 13.1867C29.1005 13.1867 29.2062 13.2111 29.312 13.2599L29.7105 13.3738C29.7592 13.3982 29.8162 13.4144 29.8731 13.4144C29.9301 13.4144 29.9789 13.3982 30.0359 13.3738C30.1009 13.3168 30.1822 13.2843 30.2717 13.2843C30.3611 13.2843 30.4425 13.3168 30.5075 13.3738L31.2395 13.8698C31.3778 13.9674 31.4998 14.0894 31.6055 14.2276C31.7764 14.4147 31.7031 14.5611 31.4754 14.6261L31.1419 14.7075C31.1419 14.7075 31.1419 14.7075 30.9711 14.8051H31.3209C31.3209 14.9352 31.451 15.0978 31.5567 15.1629C31.6869 15.1792 31.817 15.1792 31.939 15.1629C32.0203 15.1629 32.0935 15.1873 32.1586 15.2442C32.2074 15.2849 32.248 15.3337 32.2724 15.3907C32.5815 16.0413 33.0288 16.6105 33.59 17.0659L33.6877 17.1636C33.6877 17.2937 33.5413 17.2937 33.4355 17.2937C33.1589 17.2692 32.8824 17.2937 32.614 17.3912C32.5083 17.4238 32.3863 17.4238 32.2805 17.3912L30.7596 16.887C30.5482 16.8463 30.3449 16.7813 30.1416 16.7C29.9951 16.6593 29.8569 16.5861 29.7349 16.4804C29.621 16.3827 29.5316 16.2445 29.4746 16.1063C29.4177 15.9599 29.4015 15.8054 29.4177 15.6509C29.434 15.4963 29.4827 15.3418 29.5722 15.2198L29.743 14.8782C29.5804 14.984 29.4421 15.1222 29.3445 15.2849C29.2469 15.4475 29.1818 15.6264 29.1575 15.8216C29.1331 16.334 29.2469 16.8382 29.4909 17.2855C29.7511 17.6922 29.9789 18.115 30.1741 18.5542C30.4425 19.2129 30.6459 19.9123 30.8573 20.5792C30.8573 20.7662 30.9549 20.9288 31.0118 21.1159C31.2233 21.9455 31.2233 22.8156 31.0118 23.6452C30.9061 24.068 30.7678 24.4828 30.6132 24.8813C30.4831 25.2229 30.4262 25.2392 30.0602 25.1334L29.0029 24.8651C28.7263 24.7756 28.4255 24.7756 28.1489 24.8651C28.3522 25.0114 28.58 25.1091 28.8158 25.1578C29.3038 25.2392 29.7756 25.3774 30.2229 25.5888C30.3042 25.6295 30.3774 25.6864 30.4344 25.7515C30.4912 25.8247 30.532 25.906 30.5564 25.9955C30.5564 26.2476 30.6702 26.516 30.7596 26.7437C30.841 26.9795 30.7596 27.0364 30.5889 27.069C30.4181 27.1015 30.0032 27.1828 29.6861 27.2153C29.3689 27.2479 29.0192 27.2153 28.6857 27.2153C28.6857 27.2153 28.7996 27.3292 28.8727 27.3454L30.6459 27.9879C30.719 28.0124 30.7841 28.0611 30.8329 28.118C30.898 28.1994 30.9874 28.2645 31.085 28.3132C31.1826 28.362 31.2884 28.3865 31.4022 28.3865C32.0854 28.4109 32.7685 28.3784 33.4436 28.2889C33.9235 28.2075 34.4196 28.2075 34.8994 28.2889C35.0296 28.297 35.1434 28.3376 35.2573 28.4027C35.3631 28.4677 35.4526 28.5654 35.5257 28.6711L35.7616 29.094V29.2403C35.7616 29.2403 35.7128 29.2567 35.6884 29.2567C35.6639 29.2567 35.6396 29.2567 35.6152 29.2403L35.2492 29.0208C35.1353 28.9557 35.0133 28.9232 34.8832 28.9232C34.7531 28.9232 34.6311 28.9476 34.5172 29.0208L32.8418 29.7853C32.2806 30.0211 31.6706 30.1105 31.0687 30.0374C30.2961 29.9966 29.5316 29.8665 28.7915 29.647C28.1977 29.4681 27.6691 29.1102 27.2868 28.6222C26.7501 27.9148 26.1969 27.1991 25.6114 26.4752C25.4568 26.272 25.3512 26.0361 25.3023 25.784C25.2535 25.5319 25.2617 25.2798 25.3267 25.0358C25.4975 24.2226 25.6114 23.4093 25.6764 22.588C25.7903 21.7503 25.9286 20.9126 26.0424 20.075C26.0424 19.6683 26.0424 19.2861 26.14 18.8957C26.14 18.0825 26.1807 17.2692 26.2702 16.4641V16.4479V16.4885ZM26.1157 15.6183V15.9355C25.4975 16.944 25.2128 18.115 25.2942 19.2942V20.7987C25.3023 21.1322 25.2047 21.4575 25.0258 21.734C24.8387 22.0024 24.5703 22.2139 24.2613 22.3277C24.0742 22.409 23.879 22.4578 23.6756 22.4741C23.5455 22.4741 23.4724 22.4741 23.4886 22.2707C23.5455 21.734 23.7814 21.2461 24.1718 20.8801C24.2531 20.8232 24.31 20.75 24.3426 20.6605C24.3751 20.5711 24.3833 20.4735 24.367 20.384C24.367 20.1156 24.367 19.8473 24.2531 19.5952C24.2288 19.2129 24.2857 18.8307 24.4239 18.4729C24.5378 18.1313 24.676 17.7979 24.8224 17.4644V17.3343C24.489 17.4482 24.2531 17.7328 23.8871 17.7979C23.8871 17.7328 23.8871 17.6759 23.8871 17.6108C24.1637 17.0334 24.5297 16.4966 24.977 16.0413C25.1884 15.8542 25.408 15.6834 25.6439 15.537C25.6602 15.4719 25.6927 15.4232 25.7497 15.3907C25.8066 15.3581 25.8635 15.3418 25.9286 15.3581C25.9937 15.3662 26.0424 15.4069 26.0831 15.4638C26.1157 15.5126 26.1319 15.5777 26.1157 15.6428V15.6183ZM25.3755 13.1704H25.4732C25.4487 13.2273 25.4243 13.2843 25.3918 13.3331C25.1397 13.5852 24.9363 13.8779 24.7899 14.2033C24.7412 14.3334 24.6598 14.4391 24.554 14.5367C23.9197 15.0002 23.4724 15.6672 23.2853 16.4316C23.0983 17.0741 23.0331 17.7409 22.8705 18.3752C22.7973 18.6436 22.6753 18.912 22.5208 19.1478C22.4476 19.2454 22.3419 19.3268 22.2199 19.3674C22.0979 19.4081 21.9759 19.4244 21.8457 19.3918C21.9677 19.6765 22.1629 19.9204 22.415 20.0994C22.6428 20.262 22.8868 20.4084 23.1308 20.5304L22.659 21.5551C22.1385 20.8801 21.6749 20.2295 21.2195 19.6277C21.5204 19.1804 21.805 18.7737 22.0735 18.359C22.4069 17.806 22.594 17.1717 22.6102 16.5292C22.6265 16.2201 22.7079 15.9193 22.8461 15.6428C23.3829 14.5611 24.2775 13.6909 25.3755 13.1786V13.1623V13.1704ZM22.35 11.6903C22.6346 11.6903 22.6671 11.6903 22.6021 12.0156C22.537 12.3327 22.6021 12.3165 22.7891 12.3654C22.9762 12.4141 22.7891 11.983 22.7891 11.7798C23.4398 11.6822 23.5781 11.7798 23.391 12.3654C23.3015 12.6987 23.1633 13.0159 22.9763 13.3006C22.8624 13.5202 22.7404 13.5202 22.5451 13.3006C22.2361 13.0484 22.0165 12.6906 21.927 12.2921C21.8295 12.0563 21.7969 11.7879 21.6912 11.5358C21.6667 11.4544 21.6667 11.3813 21.6912 11.2999C21.7156 11.2186 21.7562 11.1536 21.8131 11.0966C21.9189 10.9909 22.0409 10.9096 22.171 10.8526C22.3093 10.7957 22.4476 10.7632 22.594 10.7632C22.7404 10.7632 22.8868 10.7957 23.0169 10.8526C23.1551 10.9096 23.2771 10.9909 23.3748 11.0966C23.2853 11.2104 23.1551 11.2837 23.0088 11.3162C22.8705 11.3487 22.716 11.3243 22.5859 11.2674C22.4476 11.2023 22.3011 11.1698 22.1548 11.1698C22.0571 11.1698 21.9677 11.2512 21.8701 11.2999C21.8701 11.3568 21.8782 11.4057 21.9026 11.4544C21.927 11.5033 21.9515 11.552 21.9921 11.5845C22.0328 11.6253 22.0735 11.6497 22.1304 11.674C22.1791 11.6903 22.2361 11.6984 22.293 11.6984L22.3581 11.6822L22.35 11.6903ZM23.0006 9.36439C23.1064 9.5921 23.204 9.82795 23.2853 10.0719C23.2853 10.2427 23.3666 10.4054 23.4154 10.625H22.659C22.6102 10.625 22.5533 10.6168 22.5045 10.5924C22.4557 10.568 22.415 10.5274 22.3906 10.4867C22.3581 10.446 22.3419 10.3972 22.3337 10.3484C22.3256 10.2915 22.3337 10.2427 22.3419 10.1939C22.3744 9.90114 22.4801 9.63276 22.659 9.40505C22.7891 9.1692 22.8949 9.1692 22.9925 9.38879V9.37253L23.0006 9.36439ZM19.8368 9.36439L20.9917 8.86017C20.8941 9.07975 20.7233 9.25053 20.52 9.35625C20.3086 9.47011 20.0727 9.50264 19.845 9.46198V9.36439H19.8368ZM21.2926 8.30716C20.9511 8.543 20.577 8.72192 20.1702 8.82764C19.8693 8.86831 19.5685 8.79511 19.3163 8.62432C19.2593 8.55113 19.2024 8.47795 19.1617 8.38849H19.7473C20.0808 8.45355 20.4142 8.38849 20.699 8.20144L21.7237 7.57523C21.8457 7.51829 21.984 7.4939 22.1141 7.4939C22.2442 7.4939 22.3825 7.51829 22.5045 7.57523C22.5614 7.59963 22.6102 7.64029 22.659 7.68908V7.78668C22.1548 7.868 21.683 8.07131 21.2845 8.38849V8.29089L21.2926 8.30716ZM18.8202 13.5689C19.2187 13.8535 19.5766 14.1951 19.9426 14.5041C20.2597 14.8295 20.6339 15.106 21.0486 15.2931C21.3007 15.3499 21.5611 15.3906 21.8214 15.4232C21.5855 15.5695 21.3171 15.6509 21.0324 15.6428C20.764 15.602 20.5037 15.5452 20.2435 15.4557C20.5119 15.7078 20.8372 15.903 21.1869 16.0168C21.5447 16.1306 21.9189 16.147 22.2849 16.0981V16.4154C22.1873 16.6593 22.0653 16.8951 21.9351 17.1228C21.8295 17.2855 21.6667 17.4074 21.4879 17.4725C21.3007 17.5377 21.1056 17.5377 20.9185 17.4725C20.1785 17.2855 19.4952 16.9277 18.9178 16.4316C18.3403 15.9355 17.8767 15.3174 17.5758 14.618C17.5107 14.4716 17.4701 14.309 17.4457 14.1545C17.4457 14.0488 17.4132 13.943 17.3643 13.8454C17.3155 13.756 17.2423 13.6747 17.161 13.6095C17.1041 13.5608 17.0553 13.4957 17.0309 13.4225C17.3237 13.3006 17.6489 13.2518 17.9662 13.2924C18.2833 13.3331 18.5843 13.4551 18.8364 13.6503V13.5527L18.8202 13.5689ZM15.087 12.4141L15.8028 13.4063L20.4224 19.8879L27.2624 29.3623C28.0026 30.387 28.7345 31.4037 29.4502 32.4446C29.499 32.5259 29.5641 32.5991 29.6373 32.656C29.7186 32.713 29.8081 32.7455 29.8976 32.7617C30.0521 32.7617 30.1009 32.8918 30.1171 33.0301C30.1334 33.1602 30.1171 33.6319 30.231 34.0223L29.0761 33.4693C29.0761 33.3717 29.0761 33.2822 29.1737 33.2334C29.2387 33.1602 29.2713 33.0708 29.2713 32.9813C29.2713 32.8837 29.2387 32.7943 29.1737 32.7292C28.3685 31.6232 27.604 30.5009 26.7988 29.3786C25.7415 27.8659 24.676 26.3777 23.6188 24.8813L15.4368 13.3331L15.0708 12.8451C15.0383 12.7963 15.022 12.7394 15.022 12.6825C15.022 12.6256 15.0383 12.5686 15.0708 12.5117V12.4141H15.087ZM16.5267 21.6283C15.7621 21.5469 15.022 21.3518 14.3225 21.0427C13.9565 20.8882 13.558 20.8232 13.1595 20.8476C12.761 20.872 12.3787 20.9939 12.0371 21.2054H11.9395C11.9395 21.2054 11.8826 21.1403 11.8663 21.1078C11.85 21.0672 11.8419 21.0265 11.8419 20.9939C11.8419 20.9533 11.85 20.9126 11.8663 20.872C11.8826 20.8313 11.907 20.7987 11.9395 20.7743C12.1916 20.4979 12.517 20.2945 12.8749 20.1889L15.5994 19.3512L16.1362 19.1316C16.2257 19.0991 16.3152 19.0503 16.3883 18.9852C15.2172 18.7737 14.0135 18.9038 12.9074 19.3512C12.6064 18.8307 12.6552 18.5786 13.1106 18.2451C13.5092 17.9686 13.9809 17.8304 14.4689 17.8385C15.144 17.8385 15.8109 17.9199 16.4615 18.0906L18.1369 18.6274C17.9662 18.8307 17.7222 18.8307 17.5188 18.969C17.3155 19.0991 17.1203 19.1886 16.917 19.2861L16.2827 19.6033L15.6645 19.8879C15.4368 19.9693 15.209 20.0587 14.9975 20.1563H16.673L17.2423 20.0261C17.1447 20.3596 16.9414 20.4897 16.1199 20.8395H16.2338C16.8519 20.8801 17.4619 20.7418 18.0068 20.4572L18.4623 20.2051H18.6493C18.6493 20.2051 18.6657 20.2701 18.6657 20.2945C18.6657 20.3271 18.6657 20.3596 18.6493 20.3921C18.5192 20.7337 18.2833 21.0346 17.9824 21.2461C17.5758 21.5551 17.0715 21.7259 16.5592 21.7259V21.6283H16.5267ZM16.2094 26.272C16.7462 26.0524 17.3074 25.9141 17.8848 25.849C18.1207 25.849 18.1696 25.849 18.1858 26.1175C18.2021 26.3859 18.1858 27.0039 18.2997 27.4268C18.3484 28.5085 18.0312 29.5738 17.3968 30.444C17.0472 31.0296 16.5673 31.5174 15.9898 31.8834C15.7703 32.038 15.5588 32.2088 15.3554 32.3876C15.2497 32.4852 15.1603 32.5829 15.0708 32.6886C15.4937 32.8593 15.9492 32.9569 16.4128 32.9569C16.429 32.9813 16.4372 33.0138 16.4453 33.0382C16.4453 33.0627 16.4453 33.1033 16.4372 33.1277C16.429 33.1521 16.4128 33.1766 16.3883 33.2009C16.3639 33.2253 16.3395 33.2334 16.3152 33.2416C16.063 33.3229 15.8109 33.4449 15.575 33.5099C15.3392 33.575 14.7048 33.7945 14.29 33.9573C13.5011 34.2989 12.8422 34.8843 12.4194 35.6325L12.1021 36.2181C12.1021 36.3156 11.972 36.4214 11.85 36.3482C11.8175 36.3157 11.785 36.275 11.7606 36.2344C11.7443 36.1937 11.728 36.1368 11.728 36.0961C11.7443 35.7383 11.85 35.3886 12.029 35.0877C12.2079 34.7786 12.4519 34.5184 12.7529 34.3232C13.0537 34.1361 13.314 33.884 13.5174 33.5913C13.7206 33.2985 13.8589 32.9651 13.924 32.6154C14.0216 31.1922 14.2411 29.7853 14.5584 28.3946C14.6479 27.9473 14.8511 27.5244 15.1359 27.1747C15.4205 26.8168 15.7946 26.5404 16.2094 26.3615V26.2639V26.272ZM9.01969 30.9807C9.30435 30.5578 9.45888 30.0618 9.45074 29.5494C9.47514 28.663 9.70287 27.8009 10.1177 27.0202C10.3047 26.6136 10.5162 26.2476 10.7521 25.8247L10.5487 25.9385L9.75981 26.6461L9.50768 26.7925V26.6054C9.95496 25.6458 10.6951 24.8488 11.6142 24.3283C11.8663 24.1981 12.151 24.1331 12.4356 24.1413C13.3059 24.2226 14.1191 24.6292 14.7129 25.2798C14.7535 25.3204 14.778 25.3774 14.778 25.4343C14.778 25.4994 14.7535 25.5482 14.7129 25.5969C14.6885 25.662 14.6479 25.7108 14.5909 25.7434C14.534 25.7759 14.4608 25.784 14.3958 25.7759C14.0297 25.7759 13.6556 25.7759 13.2734 25.6783C12.8341 25.6458 12.395 25.7434 12.0127 25.971C11.6305 26.1906 11.3213 26.5241 11.1343 26.9226C10.7521 27.5325 10.5081 28.2156 10.4186 28.9151C10.2803 29.7445 9.85741 30.5009 9.21489 31.0458C9.14169 31.1027 9.06035 31.1516 8.97902 31.1922V31.1108L9.01156 30.9645L9.01969 30.9807Z" fill="#E9E7EF"/>
<path id="Vector_3" d="M64.2033 9.93415H62.4466V2.7851H58.8843V9.93415H57.095V1.18286H64.2358L64.2033 9.93415Z" fill="#E9E7EF"/>
<path id="Vector_4" d="M72.6538 3.99695C72.6538 4.39547 72.5643 4.78586 72.4017 5.15185C72.2389 5.50972 71.9949 5.84317 71.7022 6.11157C71.4094 6.37997 71.0597 6.5833 70.6855 6.71342C70.3114 6.83542 69.9129 6.88422 69.5144 6.84355H68.026V9.93415H66.2205V1.18286H69.5631C69.9535 1.1422 70.352 1.18286 70.7343 1.29672C71.1084 1.42686 71.45 1.62205 71.7592 1.88232C72.0519 2.15071 72.2959 2.4679 72.4586 2.83389C72.5968 3.20802 72.6701 3.59842 72.6619 3.99695H72.6538ZM68.0179 2.76883V5.26572H69.5063C69.6689 5.30638 69.8396 5.30638 70.0105 5.26572C70.1731 5.20879 70.3195 5.11932 70.4415 5.00546C70.5635 4.8916 70.6611 4.75333 70.7343 4.59067C70.7994 4.44427 70.8319 4.27347 70.8319 4.11081C70.8319 3.94815 70.7994 3.77734 70.7343 3.62282C70.6693 3.46829 70.5717 3.33002 70.4415 3.20802C70.3195 3.09416 70.1731 3.0047 70.0105 2.9559C69.8478 2.91523 69.677 2.91523 69.5063 2.9559L68.0179 2.76883Z" fill="#E9E7EF"/>
<path id="Vector_5" d="M78.1763 8.78679H74.5978L74.1098 9.93358H72.1821L76.0779 1.01147H76.6798L80.5756 9.93358H78.6725L78.1682 8.78679H78.1763ZM76.3871 4.36234L75.167 7.31468H77.5094L76.3871 4.36234Z" fill="#E9E7EF"/>
<path id="Vector_6" d="M88.5296 7.34824C88.5296 7.71423 88.4482 8.07209 88.2937 8.40555C88.1473 8.73902 87.9277 9.03181 87.6593 9.2758C87.3909 9.5198 87.0656 9.70686 86.7241 9.8126C86.3824 9.92643 86.0246 9.96716 85.6667 9.93456H81.7709V1.18329H84.8615C85.2113 1.13449 85.5609 1.15889 85.8944 1.26462C86.2279 1.36222 86.5369 1.53302 86.8053 1.76074C87.0656 1.99661 87.2771 2.28126 87.4234 2.59847C87.5536 2.92379 87.6268 3.27352 87.6268 3.62324C87.6431 3.91604 87.5943 4.20883 87.4723 4.47723C87.3584 4.74562 87.1957 4.99775 86.9843 5.20108C87.4397 5.34748 87.8382 5.63214 88.1229 6.02253C88.3913 6.40479 88.5377 6.87652 88.5215 7.34824H88.5296ZM83.5114 4.69682H84.7314C85.4878 4.69682 85.87 4.28203 85.87 3.68831C85.87 3.09459 85.4878 2.67979 84.7314 2.67979L83.5114 2.69606V4.69682ZM86.8542 7.29944C86.8542 7.14491 86.8297 6.99038 86.7647 6.84398C86.6996 6.69759 86.6102 6.57559 86.4963 6.46986C86.3824 6.36412 86.2442 6.28279 86.0978 6.23399C85.9513 6.19333 85.7887 6.16893 85.6342 6.19333H83.5765V8.37302H85.6017C86.3011 8.37302 86.7728 7.99076 86.7728 7.29944H86.8542Z" fill="#E9E7EF"/>
<path id="Vector_7" d="M97.5738 9.9417H95.8984V4.5738L90.6443 10.0881H90.075V1.18227H91.848V6.5095L97.0533 1.01147H97.5738V9.9417Z" fill="#E9E7EF"/>
<path id="Vector_8" d="M106.122 2.78449H103.307V9.92543H101.518V2.78449H98.745V1.11719H106.089L106.122 2.79262V2.78449Z" fill="#E9E7EF"/>
<path id="Vector_9" d="M113.181 2.7851H109.082V4.56626H112.091V6.09531H109.082V8.37259H113.328V9.93415H107.284V1.18286H113.173V2.7851H113.181Z" fill="#E9E7EF"/>
<path id="Vector_10" d="M121.631 1.18332V9.92652H119.858V2.78556H117.646C117.646 8.42185 115.971 9.82889 113.864 9.99967V8.32425C115.256 8.15346 115.939 6.64881 115.939 2.80996V1.13452L121.623 1.18332H121.631Z" fill="#E9E7EF"/>
<path id="Vector_11" d="M125.43 4.15193H127.219C127.617 4.11126 128.025 4.15193 128.398 4.28206C128.781 4.41219 129.131 4.61552 129.423 4.88391C129.716 5.15231 129.943 5.47764 130.107 5.84364C130.269 6.21776 130.359 6.61629 130.359 7.02294C130.359 7.42147 130.277 7.81186 130.107 8.17786C129.952 8.54385 129.716 8.87731 129.423 9.15384C129.131 9.42223 128.781 9.63369 128.398 9.75569C128.016 9.88582 127.617 9.92652 127.219 9.88582H123.64V1.13452H125.43V4.15193ZM125.43 5.70537V8.32425H127.219C127.39 8.35678 127.569 8.35678 127.739 8.32425C127.919 8.25918 128.073 8.16972 128.211 8.03959C128.334 7.90945 128.431 7.76306 128.496 7.6004C128.537 7.4296 128.537 7.25067 128.496 7.07988C128.537 6.90908 128.537 6.73015 128.496 6.55935C128.431 6.39668 128.325 6.23403 128.195 6.11203C128.057 5.99003 127.911 5.89243 127.739 5.81924C127.561 5.7867 127.381 5.7867 127.203 5.81924L125.43 5.70537Z" fill="#E9E7EF"/>
<path id="Vector_12" d="M139.931 3.19118L138.589 4.15089C138.346 3.71171 137.988 3.34572 137.557 3.09359C137.126 2.82519 136.638 2.67879 136.134 2.67066C135.751 2.65439 135.377 2.72759 135.028 2.87399C134.678 3.00411 134.352 3.21558 134.092 3.49211C133.831 3.76864 133.628 4.09396 133.49 4.45182C133.352 4.80969 133.295 5.19194 133.303 5.5742C133.286 5.94833 133.352 6.33058 133.49 6.68031C133.628 7.03004 133.831 7.34724 134.092 7.61563C134.361 7.88403 134.678 8.09548 135.028 8.24189C135.377 8.37201 135.751 8.44521 136.134 8.44521C136.638 8.43708 137.126 8.29069 137.557 8.03042C137.988 7.77829 138.346 7.40417 138.589 6.97311L139.931 7.93282C139.541 8.63228 138.964 9.20974 138.256 9.60826C137.581 9.98235 136.808 10.1776 136.028 10.1451C135.434 10.1451 134.84 10.0393 134.295 9.81158C133.742 9.58386 133.246 9.24226 132.831 8.81934C132.172 8.18495 131.725 7.3635 131.554 6.46072C131.375 5.55794 131.481 4.63075 131.847 3.7849C132.319 2.68692 133.189 1.80854 134.287 1.33681C134.921 1.07656 135.604 0.954557 136.296 0.995221C136.979 1.02776 137.654 1.21482 138.256 1.54014C138.955 1.92241 139.541 2.49986 139.931 3.19931V3.19118Z" fill="#E9E7EF"/>
<path id="Vector_13" d="M148.032 2.78449H145.218V9.92543H143.429V2.78449H140.639V1.11719H147.983L148.032 2.79262V2.78449Z" fill="#E9E7EF"/>
<path id="Vector_14" d="M155.978 7.34824C155.97 7.7061 155.889 8.07209 155.742 8.40555C155.587 8.73902 155.368 9.03994 155.092 9.2758C154.823 9.51167 154.506 9.69059 154.172 9.8126C153.831 9.92643 153.464 9.96716 153.099 9.93456H149.203V1.18329H152.302C152.652 1.13449 153.002 1.15889 153.335 1.26462C153.669 1.36222 153.977 1.53302 154.245 1.76074C154.506 1.99661 154.717 2.28126 154.864 2.59847C155.002 2.92379 155.075 3.27352 155.067 3.62324C155.083 3.91604 155.034 4.20883 154.912 4.47723C154.798 4.74562 154.636 4.99775 154.425 5.20108C154.88 5.34748 155.278 5.63214 155.564 6.02253C155.84 6.40479 155.986 6.86838 155.978 7.34824ZM150.96 4.69682H152.18C152.936 4.69682 153.319 4.28203 153.319 3.68831C153.319 3.09459 152.936 2.67979 152.18 2.67979L150.96 2.69606V4.69682ZM154.303 7.29944C154.303 7.14491 154.278 6.99038 154.213 6.84398C154.148 6.69759 154.058 6.57559 153.945 6.46986C153.831 6.36412 153.692 6.28279 153.546 6.23399C153.4 6.19333 153.238 6.16893 153.083 6.19333H151.024V8.37302H153.05C153.872 8.37302 154.335 7.99076 154.335 7.29944H154.303Z" fill="#E9E7EF"/>
<path id="Vector_15" d="M166.161 5.55889C166.177 6.25021 166.047 6.93339 165.763 7.56778C165.478 8.20216 165.063 8.76336 164.543 9.21068C164.022 9.66615 163.404 9.99147 162.737 10.1704C162.07 10.3575 161.37 10.39 160.695 10.268C159.777 10.0972 158.939 9.66615 158.272 9.01549C157.613 8.37297 157.157 7.55152 156.971 6.64873C156.791 5.74595 156.865 4.79437 157.207 3.93225C157.548 3.07827 158.125 2.34628 158.882 1.81762C159.646 1.30524 160.549 1.02871 161.476 1.02057C162.086 1.00431 162.688 1.11817 163.249 1.33777C163.81 1.55737 164.323 1.89082 164.754 2.31375C165.193 2.73667 165.543 3.24093 165.771 3.80212C166.022 4.35517 166.161 4.95703 166.169 5.56702L166.161 5.55889ZM158.703 5.55889C158.686 5.94928 158.744 6.33967 158.874 6.69753C159.011 7.0554 159.207 7.38885 159.459 7.67352C159.719 7.95817 160.045 8.17777 160.394 8.3323C160.744 8.48683 161.126 8.56817 161.517 8.56817C161.907 8.56817 162.281 8.48683 162.639 8.3323C162.989 8.1859 163.315 7.95817 163.574 7.67352C163.835 7.39699 164.038 7.06352 164.176 6.69753C164.38 5.94928 164.38 5.16036 164.176 4.42025C164.038 4.06238 163.835 3.72892 163.574 3.44426C163.315 3.16773 162.989 2.94814 162.639 2.78547C162.29 2.63095 161.907 2.54961 161.517 2.54961C161.126 2.54961 160.753 2.63095 160.394 2.78547C160.036 2.94 159.719 3.1596 159.459 3.44426C159.207 3.73705 159.011 4.06238 158.874 4.42025C158.76 4.78624 158.719 5.17663 158.76 5.55889H158.703Z" fill="#E9E7EF"/>
<path id="Vector_16" d="M65.6267 16.9602V25.9473H63.8374V21.2545L61.6251 24.0198H61.0559L58.8436 21.2545V25.9311H57.0543V17.0497H57.6562L61.3161 21.775L65.0004 17.0497L65.6186 16.9683L65.6267 16.9602Z" fill="#E9E7EF"/>
<path id="Vector_17" d="M76.4356 21.4657C76.4681 22.3928 76.216 23.3037 75.7199 24.0846C75.2319 24.8735 74.5161 25.4998 73.6703 25.882C72.8244 26.2561 71.8809 26.37 70.9701 26.1992C70.0592 26.0447 69.2214 25.6136 68.5626 24.963C67.8957 24.3204 67.4403 23.499 67.237 22.5962C67.0905 21.9211 67.0987 21.2217 67.2614 20.5467C67.424 19.8716 67.733 19.2372 68.1641 18.7004C68.5951 18.1636 69.1483 17.7244 69.7745 17.4235C70.4008 17.1225 71.0839 16.968 71.7753 16.968C72.3933 16.9355 73.0033 17.0331 73.5808 17.2527C74.1582 17.4723 74.6788 17.8058 75.118 18.2449C75.5491 18.6679 75.8988 19.164 76.1346 19.7171C76.3542 20.2782 76.4519 20.8801 76.4356 21.482V21.4657ZM68.9774 21.4657C68.9774 22.214 69.2784 22.9134 69.7989 23.4421C70.0592 23.7024 70.3682 23.9137 70.7098 24.052C71.0514 24.1985 71.4174 24.2635 71.7916 24.2635C72.5317 24.2635 73.2392 23.9707 73.7679 23.4421C74.2884 22.9215 74.5893 22.2058 74.5893 21.4657C74.5893 21.0916 74.5242 20.7256 74.3779 20.3839C74.2396 20.0424 74.0281 19.7252 73.7679 19.4649C73.2473 18.9444 72.5317 18.6517 71.7916 18.6434C71.4256 18.6434 71.0514 18.7167 70.7098 18.8549C70.3682 18.9932 70.0592 19.2047 69.7989 19.4649C69.5386 19.7252 69.3272 20.0343 69.1889 20.3839C69.0506 20.7256 68.9774 21.0916 68.9774 21.4657Z" fill="#E9E7EF"/>
<path id="Vector_18" d="M85.87 19.0991L84.5281 20.0589C84.2759 19.6196 83.9181 19.2455 83.4869 18.9852C83.0559 18.7331 82.576 18.5948 82.0799 18.5786C81.6977 18.5623 81.3154 18.6274 80.9575 18.782C80.6078 18.9202 80.2906 19.1316 80.0385 19.4082C79.7701 19.6766 79.5668 20.0019 79.4366 20.3679C79.2984 20.7257 79.2415 21.108 79.2496 21.4903C79.2334 21.8563 79.2984 22.2223 79.4366 22.5639C79.5668 22.9054 79.7701 23.2227 80.0223 23.4829C80.2825 23.7513 80.5915 23.9628 80.9413 24.1092C81.2829 24.2474 81.6408 24.3207 82.0149 24.3124C82.511 24.3124 83.0072 24.1661 83.4301 23.9139C83.8611 23.6618 84.2108 23.2877 84.4548 22.8566L85.8131 23.8164C85.4227 24.4914 84.8615 25.0526 84.1783 25.443C83.4951 25.8252 82.7306 26.0204 81.9498 26.0042C81.3724 25.9961 80.803 25.8741 80.2744 25.6463C79.7213 25.4267 79.2252 25.0933 78.8022 24.6703C78.3794 24.2474 78.0459 23.7513 77.8181 23.1983C77.3708 22.084 77.3708 20.8396 77.8181 19.7254C78.2817 18.6111 79.1682 17.7327 80.2744 17.2611C80.8111 17.0496 81.3724 16.9357 81.9498 16.9276C82.7387 16.8951 83.5195 17.0902 84.2108 17.4806C84.9022 17.8628 85.4796 18.4322 85.87 19.1235V19.0991Z" fill="#E9E7EF"/>
<path id="Vector_19" d="M92.9948 25.8331L89.2455 21.2785V25.8331H87.5375V17.0898H89.213V21.1483L92.5557 17.0898H94.6784L91.3357 21.2134L95.1338 25.8331H92.9948Z" fill="#E9E7EF"/>
<path id="Vector_20" d="M103.162 23.2547C103.153 23.6126 103.071 23.9786 102.926 24.3121C102.771 24.6455 102.551 24.9465 102.275 25.1824C102.006 25.4181 101.689 25.5971 101.356 25.7191C101.014 25.833 100.648 25.8736 100.282 25.833H96.3212V17.0898H99.4848C99.8267 17.0085 100.184 17.0085 100.526 17.0898C100.859 17.1874 101.169 17.3582 101.429 17.5859C101.689 17.8218 101.901 18.1064 102.047 18.4236C102.185 18.749 102.259 19.0987 102.267 19.4484C102.267 19.7412 102.218 20.034 102.095 20.3024C101.982 20.5708 101.819 20.8229 101.608 21.0263C102.064 21.1727 102.462 21.4573 102.746 21.8396C103.039 22.2543 103.185 22.7423 103.162 23.2547ZM98.143 18.6107V20.6196H99.3629C99.5016 20.6522 99.6473 20.6522 99.7781 20.6196C99.9238 20.5952 100.055 20.522 100.16 20.4163C100.266 20.3187 100.355 20.1967 100.412 20.0665C100.436 19.9202 100.436 19.7738 100.412 19.6273C100.412 19.0418 100.014 18.6351 99.2737 18.6351L98.1348 18.6025L98.143 18.6107ZM101.486 23.1897C101.486 23.0352 101.461 22.8806 101.397 22.7342C101.331 22.5878 101.242 22.4658 101.128 22.3601C101.014 22.2543 100.875 22.1731 100.73 22.1323C100.583 22.0917 100.42 22.0754 100.266 22.0998H98.143V24.2632H100.184C100.973 24.2632 101.437 23.8566 101.437 23.1571L101.486 23.1897Z" fill="#E9E7EF"/>
<path id="Vector_21" d="M106.325 20.091H108.114C108.521 20.0504 108.928 20.091 109.318 20.2049C109.701 20.3269 110.059 20.5302 110.351 20.8068C110.66 21.0751 110.904 21.4086 111.066 21.7828C111.229 22.1568 111.319 22.5635 111.319 22.9702C111.319 23.3768 111.229 23.7834 111.066 24.1576C110.904 24.5317 110.66 24.8652 110.351 25.1336C110.051 25.402 109.692 25.6053 109.318 25.7355C108.928 25.8575 108.521 25.9062 108.114 25.8493H104.536V17.1061H106.325V20.1073V20.091ZM106.325 21.6608V24.2633H108.114C108.456 24.2633 108.79 24.1332 109.034 23.8892C109.212 23.7103 109.343 23.4744 109.392 23.2223C109.44 22.9702 109.415 22.7099 109.318 22.474C109.22 22.2382 109.05 22.0267 108.838 21.8884C108.626 21.742 108.375 21.6689 108.114 21.6689H106.325V21.6608ZM114.686 25.8331H112.897V17.0898H114.686V25.8331Z" fill="#E9E7EF"/>
</g>
</svg>
