<svg width="115" height="115" viewBox="0 0 115 115" fill="none" xmlns="http://www.w3.org/2000/svg">
<g id="Group 1">
<g id="Ellipse 2" filter="url(#filter0_dddd_111_1283)">
<ellipse cx="56.0001" cy="56.1688" rx="43.3102" ry="43.5688" fill="#E9E7EF"/>
</g>
<g id="Ellipse 1" filter="url(#filter1_dddd_111_1283)">
<ellipse cx="56.0002" cy="56.1688" rx="40.4545" ry="40.6962" fill="url(#paint0_linear_111_1283)"/>
</g>
<g id="_&#208;&#161;&#208;&#187;&#208;&#190;&#208;&#185;_1-2">
<path id="Vector" d="M36.7882 72.269C35.1022 72.1966 33.5014 71.4725 32.3273 70.2485C31.1498 69.0244 30.4843 67.3831 30.4843 65.6798C30.4706 63.9764 31.1157 62.3248 32.2796 61.0869C33.4434 59.8387 35.0305 59.1043 36.7166 59.0043L41.4437 58.7457L41.7713 53.9701C41.9761 50.9944 43.1673 48.1773 45.1434 45.9705C47.1196 43.7534 49.775 42.2708 52.6829 41.7708C55.5943 41.257 58.5875 41.7466 61.1951 43.1535C63.8027 44.5637 65.8642 46.805 67.0519 49.5359L68.5435 52.9426L72.2296 52.746H72.762C75.3321 52.746 77.7929 53.7735 79.6121 55.6114C81.4312 57.4492 82.4483 59.9353 82.4483 62.5317C82.4483 65.1281 81.4312 67.6141 79.6121 69.452C77.7929 71.2898 75.3321 72.3173 72.762 72.3173H37.2968L36.7882 72.269ZM36.423 53.6149C33.3444 53.7632 30.4467 55.108 28.3375 57.363C26.2145 59.618 25.0507 62.6179 25.0643 65.7315C25.0882 68.8416 26.2896 71.8173 28.4364 74.0482C30.5833 76.2757 33.5049 77.5756 36.5732 77.686V77.7101H72.7142C74.6904 77.7101 76.6427 77.317 78.4618 76.5584C80.281 75.7999 81.9398 74.6723 83.3357 73.2621C84.7317 71.8518 85.8341 70.1761 86.5986 68.3382C87.3495 66.5004 87.7386 64.5281 87.7386 62.5317C87.7386 60.5352 87.3495 58.5629 86.5986 56.7251C85.8477 54.8873 84.7317 53.2115 83.3357 51.8012C81.9398 50.391 80.281 49.2773 78.4618 48.5049C76.6427 47.7463 74.6802 47.3532 72.7142 47.3532C72.448 47.3532 72.1681 47.3532 71.9019 47.3774C70.2295 43.5431 67.3318 40.395 63.6832 38.4227C60.0347 36.4504 55.8264 35.7642 51.7409 36.4883C47.6555 37.2124 43.9318 39.2813 41.157 42.3914C38.3924 45.4775 36.72 49.4359 36.4299 53.6115L36.423 53.6149ZM35.9384 36.2608C32.3512 39.995 29.9143 44.712 28.9655 49.8186L34.2148 50.8116C34.9657 46.7464 36.9077 42.9845 39.7678 40.0226C42.628 37.0573 46.2902 35.0125 50.304 34.1436L49.1777 28.8784C44.1468 29.968 39.5392 32.5403 35.9384 36.2642V36.2608Z" fill="white"/>
</g>
</g>
<defs>
<filter id="filter0_dddd_111_1283" x="3.68994" y="3.59998" width="106.62" height="107.138" filterUnits="userSpaceOnUse" color-interpolation-filters="sRGB">
<feFlood flood-opacity="0" result="BackgroundImageFix"/>
<feColorMatrix in="SourceAlpha" type="matrix" values="0 0 0 0 0 0 0 0 0 0 0 0 0 0 0 0 0 0 127 0" result="hardAlpha"/>
<feOffset dx="3" dy="3"/>
<feGaussianBlur stdDeviation="4"/>
<feColorMatrix type="matrix" values="0 0 0 0 0.584314 0 0 0 0 0.580392 0 0 0 0 0.6 0 0 0 0.9 0"/>
<feBlend mode="normal" in2="BackgroundImageFix" result="effect1_dropShadow_111_1283"/>
<feColorMatrix in="SourceAlpha" type="matrix" values="0 0 0 0 0 0 0 0 0 0 0 0 0 0 0 0 0 0 127 0" result="hardAlpha"/>
<feOffset dx="-3" dy="-3"/>
<feGaussianBlur stdDeviation="3"/>
<feColorMatrix type="matrix" values="0 0 0 0 1 0 0 0 0 1 0 0 0 0 1 0 0 0 0.9 0"/>
<feBlend mode="normal" in2="effect1_dropShadow_111_1283" result="effect2_dropShadow_111_1283"/>
<feColorMatrix in="SourceAlpha" type="matrix" values="0 0 0 0 0 0 0 0 0 0 0 0 0 0 0 0 0 0 127 0" result="hardAlpha"/>
<feOffset dx="3" dy="-3"/>
<feGaussianBlur stdDeviation="3"/>
<feColorMatrix type="matrix" values="0 0 0 0 0.584314 0 0 0 0 0.580392 0 0 0 0 0.6 0 0 0 0.2 0"/>
<feBlend mode="normal" in2="effect2_dropShadow_111_1283" result="effect3_dropShadow_111_1283"/>
<feColorMatrix in="SourceAlpha" type="matrix" values="0 0 0 0 0 0 0 0 0 0 0 0 0 0 0 0 0 0 127 0" result="hardAlpha"/>
<feOffset dx="-3" dy="3"/>
<feGaussianBlur stdDeviation="3"/>
<feColorMatrix type="matrix" values="0 0 0 0 0.584314 0 0 0 0 0.580392 0 0 0 0 0.6 0 0 0 0.2 0"/>
<feBlend mode="normal" in2="effect3_dropShadow_111_1283" result="effect4_dropShadow_111_1283"/>
<feBlend mode="normal" in="SourceGraphic" in2="effect4_dropShadow_111_1283" result="shape"/>
</filter>
<filter id="filter1_dddd_111_1283" x="0.545654" y="0.472656" width="113.909" height="114.392" filterUnits="userSpaceOnUse" color-interpolation-filters="sRGB">
<feFlood flood-opacity="0" result="BackgroundImageFix"/>
<feColorMatrix in="SourceAlpha" type="matrix" values="0 0 0 0 0 0 0 0 0 0 0 0 0 0 0 0 0 0 127 0" result="hardAlpha"/>
<feOffset dx="5" dy="5"/>
<feGaussianBlur stdDeviation="6.5"/>
<feColorMatrix type="matrix" values="0 0 0 0 0.823529 0 0 0 0 0.815686 0 0 0 0 0.843137 0 0 0 0.9 0"/>
<feBlend mode="normal" in2="BackgroundImageFix" result="effect1_dropShadow_111_1283"/>
<feColorMatrix in="SourceAlpha" type="matrix" values="0 0 0 0 0 0 0 0 0 0 0 0 0 0 0 0 0 0 127 0" result="hardAlpha"/>
<feOffset dx="-5" dy="-5"/>
<feGaussianBlur stdDeviation="5"/>
<feColorMatrix type="matrix" values="0 0 0 0 1 0 0 0 0 0.996078 0 0 0 0 1 0 0 0 0.9 0"/>
<feBlend mode="normal" in2="effect1_dropShadow_111_1283" result="effect2_dropShadow_111_1283"/>
<feColorMatrix in="SourceAlpha" type="matrix" values="0 0 0 0 0 0 0 0 0 0 0 0 0 0 0 0 0 0 127 0" result="hardAlpha"/>
<feOffset dx="5" dy="-5"/>
<feGaussianBlur stdDeviation="5"/>
<feColorMatrix type="matrix" values="0 0 0 0 0.823529 0 0 0 0 0.815686 0 0 0 0 0.843137 0 0 0 0.2 0"/>
<feBlend mode="normal" in2="effect2_dropShadow_111_1283" result="effect3_dropShadow_111_1283"/>
<feColorMatrix in="SourceAlpha" type="matrix" values="0 0 0 0 0 0 0 0 0 0 0 0 0 0 0 0 0 0 127 0" result="hardAlpha"/>
<feOffset dx="-5" dy="5"/>
<feGaussianBlur stdDeviation="5"/>
<feColorMatrix type="matrix" values="0 0 0 0 0.823529 0 0 0 0 0.815686 0 0 0 0 0.843137 0 0 0 0.2 0"/>
<feBlend mode="normal" in2="effect3_dropShadow_111_1283" result="effect4_dropShadow_111_1283"/>
<feBlend mode="normal" in="SourceGraphic" in2="effect4_dropShadow_111_1283" result="shape"/>
</filter>
<linearGradient id="paint0_linear_111_1283" x1="29.3478" y1="28.3997" x2="87.8126" y2="96.5212" gradientUnits="userSpaceOnUse">
<stop stop-color="#2942D4"/>
<stop offset="0.492034" stop-color="#3769FA"/>
<stop offset="0.85935" stop-color="#D563FF"/>
</linearGradient>
</defs>
</svg>
