<svg width="344" height="505" viewBox="0 0 344 505" fill="none" xmlns="http://www.w3.org/2000/svg">
<path d="M20.7999 2.39999C10.8999 5.10001 3.09992 13.4 0.999925 23.3C0.299925 26.9 0.0999249 90.7 0.199925 232L0.499925 435.5L2.59992 440.1C5.29992 445.9 11.0999 451.7 16.8999 454.4C21.0999 456.3 23.1999 456.5 42.6999 456.5C62.5999 456.5 63.9999 456.4 66.6999 454.4C72.7999 449.9 72.7999 440.1 66.6999 435.6C64.0999 433.7 62.2999 433.5 45.1999 433.2C34.1999 433 25.9999 432.4 25.2999 431.8C23.4999 430.3 23.3999 28 25.1999 26.2C26.0999 25.3 49.6999 25 125.2 25H224V67.5C224 113.9 224.1 115.1 229.6 118.7C232.2 120.4 235.8 120.5 276.2 120.8L320 121.1V275.9C320 398.7 319.7 431 318.7 431.8C318 432.4 309.8 433 298.8 433.2C277.6 433.5 275.7 434.2 273.1 441.6C271.9 445 272 446 273.3 449.2C276.2 456.1 277.7 456.5 301.5 456.5C320.8 456.5 322.9 456.3 327.1 454.4C332.9 451.7 338.7 445.9 341.4 440.1L343.5 435.5L343.8 274C344 185.2 343.8 110.5 343.5 108C342.9 103.6 341.4 102.1 292.7 53.2C253.4 13.9 241.7 2.69998 239 2C233.4 0.399994 26.6999 0.799988 20.7999 2.39999ZM276 69.5L303.5 97H275.7H248V69.5C248 54.4 248.1 42 248.3 42C248.4 42 260.9 54.4 276 69.5Z" fill="#3769FA"/>
<path d="M56.0999 50.3002C45.7999 53.9002 46.0999 68.3002 56.4999 71.8002C59.4999 72.8002 74.7999 73.0002 126.1 72.8002C191.1 72.5002 191.9 72.5002 194.7 70.4002C200.8 65.9002 200.8 56.1002 194.7 51.6002C191.9 49.5002 191.1 49.5002 125.7 49.3002C76.0999 49.1002 58.5999 49.4002 56.0999 50.3002Z" fill="#3769FA"/>
<path d="M56.0999 114.3C45.7999 117.9 46.0999 132.3 56.4999 135.8C59.4999 136.8 74.7999 137 126.1 136.8C191.1 136.5 191.9 136.5 194.7 134.4C200.8 129.9 200.8 120.1 194.7 115.6C191.9 113.5 191.1 113.5 125.7 113.3C76.0999 113.1 58.5999 113.4 56.0999 114.3Z" fill="#3769FA"/>
<path d="M56.0999 178.3C45.7999 181.9 46.0999 196.3 56.4999 199.8C59.4999 200.8 84.2999 201 174.1 200.8C287.8 200.5 287.9 200.5 290.7 198.4C296.8 193.9 296.8 184.1 290.7 179.6L287.9 177.5L173.7 177.3C86.8999 177.1 58.6999 177.4 56.0999 178.3Z" fill="#3769FA"/>
<path d="M160.399 242.1C111.999 247.7 75.4994 293.7 80.8994 342.4C88.5994 411.5 166.099 447.5 223.499 408.7C256.699 386.2 271.299 344.1 259.299 305.5C248.599 271.2 218.199 246.1 182.199 242C172.499 240.9 170.499 240.9 160.399 242.1Z" fill="#3769FA"/>
<path d="M96.2008 453.9C96.5008 495.7 96.6008 496.9 98.6008 499.7C99.7008 501.2 102.401 503.1 104.601 503.9C108.501 505.3 108.701 505.2 139.601 493.6C156.701 487.2 171.301 482 172.001 482C172.701 482 187.301 487.2 204.401 493.6C235.301 505.2 235.501 505.3 239.401 503.9C241.601 503.1 244.301 501.2 245.401 499.7C247.401 496.9 247.501 495.7 247.801 453.9C247.901 430.3 247.701 411 247.201 411C246.801 411 245.101 412.4 243.501 414C235.001 422.8 215.801 433.1 199.401 437.7C190.301 440.2 188.001 440.5 172.001 440.5C156.001 440.5 153.701 440.2 144.601 437.7C128.201 433.1 109.001 422.8 100.501 414C98.9008 412.4 97.2008 411 96.8008 411C96.3008 411 96.1008 430.3 96.2008 453.9Z" fill="#3769FA"/>
</svg>
