<svg width="415" height="512" viewBox="0 0 415 512" fill="none" xmlns="http://www.w3.org/2000/svg">
<path d="M148 1C133.7 3.10001 122.4 10.6 114.5 23.1C109.8 30.5 108.7 34.8 108.1 49L107.5 62.5L71.4995 63C31.9995 63.5 32.3995 63.5 21.3995 70.1C10.2996 76.8 2.99955 88.3 1.09955 102.3C-1.60045 122 8.59955 140.7 26.7995 149.1L33.8995 152.4L34.1996 305.5C34.5995 477.2 33.8995 462 42.0995 478.9C49.2995 493.5 62.5995 504.5 79.4995 509.7C85.1995 511.4 91.8996 511.5 208 511.5C324.1 511.5 330.8 511.4 336.5 509.7C356.3 503.6 370.5 489.9 377.8 469.8L380.5 462.5L381 307.6C381.4 171.3 381.7 152.6 383 151.9C383.8 151.5 386.7 150.2 389.3 149C400.4 143.9 409.4 133.6 413.2 121.6C416.2 112.2 415.4 98.5 411.2 89.6C407.7 82.1 399.7 73.1 393.2 69.3C383.5 63.6 383.2 63.5 344.5 63L308.5 62.5L307.9 49.5C307.3 36.5 306.4 32.7 302.1 24.2C299.3 18.8 290.6 10.1 284.5 6.69998C273.5 0.5 274.9 0.600006 211.5 0.399994C179.6 0.299988 151 0.600006 148 1ZM274 27.5C282.4 33.2 285 39.3 285 53.7V63H208H131V53.2C131 41.2 132 37.5 136.7 32C143.9 23.6 140.5 24 209 24.3L269.5 24.5L274 27.5ZM378.5 87.9C393.1 94.6 396.3 111.8 385 123.1C381.3 126.8 379.2 128 374.9 129C370.9 129.8 327.1 130 204.5 129.8C21.1995 129.5 37.1996 130.1 30.1995 122.9C20.0995 112.6 22.9995 95.5 35.8995 88.8L41.1996 86H207.9C367.4 86 374.7 86.1 378.5 87.9ZM358 303.2C358 425.5 357.7 454.4 356.6 458.5C353.4 470.5 346.2 479.8 336 484.8L330.5 487.5H208H85.4995L79.7996 484.8C73.1995 481.7 66.0995 475 62.9995 469C57.7995 458.8 57.9995 466.6 57.9995 304.2V153H208H358V303.2Z" fill="white"/>
<path d="M132.4 187C131.2 187.4 129.3 189.1 128.1 190.6L126 193.3V311.1V428.8L129 431.8C130.6 433.4 133.1 435 134.7 435.3C138.6 436 144 433.9 146.4 430.7L148.5 427.9V311.1C148.5 213.1 148.3 193.9 147.1 191.7C144.7 187.2 137.6 184.9 132.4 187Z" fill="white"/>
<path d="M202.399 187.5C196.099 190.7 196.499 183.4 196.499 311.1V427.9L198.599 430.7C200.999 433.9 206.399 436 210.299 435.3C214.299 434.5 218.599 429.8 219.299 425.3C220.399 418.8 220.099 198.9 218.999 194.9C216.999 187.7 208.999 184.1 202.399 187.5Z" fill="white"/>
<path d="M272.9 187.5C266.7 190.9 267 184.4 267 311.2C267 400.7 267.3 427 268.3 428.9C272.4 437 283.8 437.6 288.3 430C289.9 427.4 290 417.7 290 311C290 183.5 290.4 190.8 284 187.5C280.4 185.6 276.3 185.6 272.9 187.5Z" fill="white"/>
</svg>
