<svg width="505" height="504" viewBox="0 0 505 504" fill="none" xmlns="http://www.w3.org/2000/svg">
<path d="M370.029 1.56639C359.234 2.8828 344.49 8.01679 335.539 13.5457C331.195 16.1785 271.693 74.6269 174.147 171.909C57.777 288.016 18.1531 328.43 13.5457 335.407C10.123 340.541 5.77891 349.229 4.06758 354.495C1.03984 363.841 0.908203 365.684 0.908203 401.096C0.908203 436.112 1.03984 438.35 3.93594 446.643C12.4926 471.523 31.7121 490.743 56.8555 499.695L68.0449 503.775H103.588L150.32 499.695C156.507 497.588 164.801 493.507 168.75 490.875C172.963 488.11 243.259 418.736 333.432 328.43C480.212 181.387 491.138 170.066 494.955 161.905C507.33 136.366 507.198 110.17 494.955 84.7633C491.401 77.1281 486.662 71.8625 460.466 45.5344C427.292 12.4926 423.08 9.33319 404.387 4.33085C392.144 1.17147 381.218 0.249989 370.029 1.56639ZM393.197 58.1719C396.488 59.7516 407.809 70.1512 422.29 84.7633C443.221 105.957 446.248 109.643 447.828 115.172C449.671 122.281 449.145 129.521 445.985 135.971C444.8 138.473 429.793 154.533 412.548 171.778L381.35 202.977L341.199 162.826L301.049 122.676L332.643 91.082C350.941 72.9156 366.211 58.6984 368.844 57.6453C375.426 54.7492 386.615 55.0125 393.197 58.1719ZM302.365 204.293L341.857 243.785L302.365 283.541C159.798 427.292 139.263 447.565 133.865 449.013C130.969 449.803 117.279 450.461 103.193 450.461C75.5484 450.461 71.5992 449.671 64.2273 442.826C56.4605 435.454 55.5391 431.505 55.5391 401.359C55.5391 380.691 55.934 372.925 57.382 369.634C59.225 365.026 258.924 164.932 261.557 164.801C262.346 164.801 280.645 182.572 302.365 204.293Z" fill="#3769FA"/>
</svg>
